<svg width="28" height="28" viewBox="0 0 28 28" fill="none" xmlns="http://www.w3.org/2000/svg">
<rect x="1" y="0.799988" width="26" height="26" rx="13" stroke="#373467" stroke-width="1.3"/>
<path fill-rule="evenodd" clip-rule="evenodd" d="M12.9736 10.5216L12.9837 12.7519H15.9554C16.4832 12.7519 16.911 12.2898 16.9083 11.7215L16.9076 11.552C16.905 10.9836 16.4732 10.5216 15.9453 10.5216H13.3804H12.9736ZM17.2854 16.1422L17.2846 15.9632C17.2818 15.3292 16.8006 14.8145 16.212 14.8145H15.9646H12.9929L13.0042 17.291H16.2231C16.8118 17.291 17.2883 16.7754 17.2854 16.1422ZM18.2287 13.6105C18.82 14.1972 19.195 15.0335 19.1992 15.9632L19.2001 16.1422C19.2081 17.9122 17.8768 19.3527 16.2325 19.3527H16.1597L16.164 20.3H14.2494L14.2451 19.3527H13.4604L13.4647 20.3H11.5502L11.5459 19.3527H11.099H10.1495L10.1401 17.291H11.0896L11.0785 14.8145L11.069 12.7519L11.0589 10.5216H10.1094L10.1001 8.45912H11.4965L11.4913 7.29999H13.4058L13.4111 8.45912H14.1958L14.1905 7.29999H16.1052L16.1104 8.46882C17.6135 8.56703 18.8147 9.91012 18.8222 11.552L18.8229 11.7215C18.8262 12.433 18.6026 13.0869 18.2287 13.6105Z" fill="#FBFBFB"/>
</svg>
