<svg width="24" height="24" viewBox="0 0 24 24" fill="none" xmlns="http://www.w3.org/2000/svg">
<path d="M3.49988 6.49988C3.49988 5.568 3.49988 5.10225 3.65213 4.73438C3.75267 4.49173 3.90003 4.27126 4.08579 4.08557C4.27155 3.89987 4.49207 3.75259 4.73475 3.65213C5.10225 3.49988 5.568 3.49988 6.49988 3.49988H7.75013C8.682 3.49988 9.14775 3.49988 9.51525 3.65213C9.75794 3.75259 9.97846 3.89987 10.1642 4.08557C10.35 4.27126 10.4973 4.49173 10.5979 4.73438C10.7501 5.10188 10.7501 5.568 10.7501 6.49988V7.74975C10.7501 8.68163 10.7501 9.14775 10.5979 9.51525C10.3948 10.0053 10.0054 10.3946 9.51525 10.5975C9.14775 10.7498 8.682 10.7498 7.75013 10.7498H6.49988C5.568 10.7498 5.10225 10.7498 4.73475 10.5975C4.49207 10.497 4.27155 10.3498 4.08579 10.1641C3.90003 9.97837 3.75267 9.7579 3.65213 9.51525C3.49988 9.14775 3.49988 8.68163 3.49988 7.74975V6.49988Z" fill="#131523"/>
<path fill-rule="evenodd" clip-rule="evenodd" d="M6.48225 3H7.76775C8.2185 3 8.58225 3 8.8785 3.02025C9.18263 3.04087 9.45188 3.08475 9.70687 3.19012C10.3193 3.44395 10.8058 3.93063 11.0595 4.54312C11.1652 4.79812 11.2091 5.06737 11.2297 5.37187C11.25 5.66775 11.25 6.0315 11.25 6.48225V7.76775C11.25 8.2185 11.25 8.58225 11.2297 8.8785C11.2091 9.18263 11.1652 9.45188 11.0595 9.70687C10.8058 10.3193 10.3193 10.8058 9.70687 11.0595C9.45188 11.1652 9.18262 11.2091 8.87812 11.2297C8.58225 11.25 8.2185 11.25 7.76775 11.25H6.48225C6.0315 11.25 5.66775 11.25 5.3715 11.2297C5.06738 11.2091 4.79812 11.1652 4.54312 11.0595C3.93063 10.8058 3.44395 10.3193 3.19012 9.70687C3.08475 9.45188 3.04087 9.18262 3.02025 8.87812C3 8.58262 3 8.21887 3 7.76813V6.48263C3 6.03188 3 5.66812 3.02025 5.37187C3.04087 5.06775 3.08475 4.7985 3.19012 4.5435C3.44387 3.93093 3.93056 3.44425 4.54312 3.1905C4.79812 3.08513 5.06737 3.04125 5.37187 3.02063C5.66737 3 6.0315 3 6.48225 3ZM5.43975 4.01775C5.18625 4.035 5.0385 4.06762 4.926 4.11412C4.74399 4.18951 4.57861 4.30001 4.43931 4.43931C4.30001 4.57861 4.18951 4.74399 4.11412 4.926C4.06762 5.0385 4.03537 5.18625 4.01775 5.43975C4.00012 5.69775 4.00012 6.02737 4.00012 6.49988V7.75012C4.00012 8.22262 4.00012 8.55262 4.01775 8.81025C4.035 9.06375 4.06762 9.2115 4.11412 9.324C4.18951 9.50601 4.30001 9.67139 4.43931 9.81069C4.57861 9.95 4.74399 10.0605 4.926 10.1359C5.0385 10.1824 5.18625 10.2146 5.43975 10.2322C5.69775 10.2499 6.02737 10.2499 6.49988 10.2499H7.75012C8.22262 10.2499 8.55262 10.2499 8.81025 10.2322C9.06375 10.215 9.2115 10.1824 9.324 10.1359C9.50601 10.0605 9.67139 9.95 9.81069 9.81069C9.95 9.67139 10.0605 9.50601 10.1359 9.324C10.1824 9.2115 10.2146 9.06375 10.2322 8.81025C10.2499 8.55225 10.2499 8.22262 10.2499 7.75012V6.49988C10.2499 6.02737 10.2499 5.69737 10.2322 5.43975C10.215 5.18625 10.1824 5.0385 10.1359 4.926C10.0605 4.74399 9.95 4.57861 9.81069 4.43931C9.67139 4.30001 9.50601 4.18951 9.324 4.11412C9.2115 4.06762 9.06375 4.03537 8.81025 4.01775C8.55225 4.00012 8.22262 4.00012 7.75012 4.00012H6.49988C6.02737 4.00012 5.69737 4.00012 5.43975 4.01775Z" fill="#131523"/>
<path d="M3.49988 16.2499C3.49988 15.318 3.49988 14.8523 3.65213 14.4844C3.75267 14.2417 3.90003 14.0213 4.08579 13.8356C4.27155 13.6499 4.49207 13.5026 4.73475 13.4021C5.10225 13.2499 5.568 13.2499 6.49988 13.2499H7.75013C8.682 13.2499 9.14775 13.2499 9.51525 13.4021C9.75794 13.5026 9.97846 13.6499 10.1642 13.8356C10.35 14.0213 10.4973 14.2417 10.5979 14.4844C10.7501 14.8519 10.7501 15.318 10.7501 16.2499V17.4998C10.7501 18.4316 10.7501 18.8978 10.5979 19.2653C10.3948 19.7553 10.0054 20.1446 9.51525 20.3475C9.14775 20.4998 8.682 20.4998 7.75013 20.4998H6.49988C5.568 20.4998 5.10225 20.4998 4.73475 20.3475C4.49207 20.247 4.27155 20.0998 4.08579 19.9141C3.90003 19.7284 3.75267 19.5079 3.65213 19.2653C3.49988 18.8978 3.49988 18.4316 3.49988 17.4998V16.2499Z" fill="#131523"/>
<path fill-rule="evenodd" clip-rule="evenodd" d="M6.48225 12.75H7.76775C8.2185 12.75 8.58225 12.75 8.8785 12.7703C9.18263 12.7909 9.45188 12.8347 9.70687 12.9401C10.3193 13.1939 10.8059 13.6806 11.0595 14.2931C11.1652 14.5481 11.2091 14.8174 11.2297 15.1219C11.25 15.4178 11.25 15.7815 11.25 16.2322V17.5178C11.25 17.9685 11.25 18.3322 11.2297 18.6285C11.2091 18.9326 11.1652 19.2019 11.0595 19.4569C10.8059 20.0694 10.3193 20.5561 9.70687 20.8099C9.45188 20.9152 9.18262 20.9591 8.87812 20.9797C8.58225 21 8.2185 21 7.76775 21H6.48225C6.0315 21 5.66775 21 5.3715 20.9797C5.06738 20.9591 4.79812 20.9152 4.54312 20.8099C3.93056 20.5561 3.44387 20.0694 3.19012 19.4569C3.08475 19.2019 3.04087 18.9326 3.02025 18.6281C3 18.3326 3 17.9689 3 17.5181V16.2326C3 15.7819 3 15.4181 3.02025 15.1219C3.04087 14.8178 3.08475 14.5485 3.19012 14.2935C3.44387 13.6809 3.93056 13.1942 4.54312 12.9405C4.79812 12.8351 5.06737 12.7913 5.37187 12.7706C5.66737 12.75 6.0315 12.75 6.48225 12.75ZM5.43975 13.7678C5.18625 13.785 5.0385 13.8176 4.926 13.8641C4.74399 13.9395 4.57861 14.05 4.43931 14.1893C4.30001 14.3286 4.18951 14.494 4.11412 14.676C4.06762 14.7885 4.03537 14.9363 4.01775 15.1898C4.00012 15.4478 4.00012 15.7774 4.00012 16.2499V17.5001C4.00012 17.9726 4.00012 18.3026 4.01775 18.5602C4.035 18.8137 4.06762 18.9615 4.11412 19.074C4.18951 19.256 4.30001 19.4214 4.43931 19.5607C4.57861 19.7 4.74399 19.8105 4.926 19.8859C5.0385 19.9324 5.18625 19.9646 5.43975 19.9822C5.69775 19.9999 6.02737 19.9999 6.49988 19.9999H7.75012C8.22262 19.9999 8.55262 19.9999 8.81025 19.9822C9.06375 19.965 9.2115 19.9324 9.324 19.8859C9.50601 19.8105 9.67139 19.7 9.81069 19.5607C9.95 19.4214 10.0605 19.256 10.1359 19.074C10.1824 18.9615 10.2146 18.8137 10.2322 18.5602C10.2499 18.3022 10.2499 17.9726 10.2499 17.5001V16.2499C10.2499 15.7774 10.2499 15.4474 10.2322 15.1898C10.215 14.9363 10.1824 14.7885 10.1359 14.676C10.0605 14.494 9.95 14.3286 9.81069 14.1893C9.67139 14.05 9.50601 13.9395 9.324 13.8641C9.2115 13.8176 9.06375 13.7854 8.81025 13.7678C8.55225 13.7501 8.22262 13.7501 7.75012 13.7501H6.49988C6.02737 13.7501 5.69737 13.7501 5.43975 13.7678Z" fill="#131523"/>
<path d="M13.2499 6.49988C13.2499 5.568 13.2499 5.10225 13.4021 4.73438C13.5027 4.49173 13.65 4.27126 13.8358 4.08557C14.0215 3.89987 14.2421 3.75259 14.4848 3.65213C14.8523 3.49988 15.318 3.49988 16.2499 3.49988H17.5001C18.432 3.49988 18.8978 3.49988 19.2653 3.65213C19.5079 3.75259 19.7285 3.89987 19.9142 4.08557C20.1 4.27126 20.2473 4.49173 20.3479 4.73438C20.5001 5.10188 20.5001 5.568 20.5001 6.49988V7.74975C20.5001 8.68163 20.5001 9.14775 20.3479 9.51525C20.1448 10.0053 19.7554 10.3946 19.2653 10.5975C18.8978 10.7498 18.432 10.7498 17.5001 10.7498H16.2499C15.318 10.7498 14.8523 10.7498 14.4848 10.5975C13.9947 10.3946 13.6052 10.0053 13.4021 9.51525C13.2499 9.14775 13.2499 8.68163 13.2499 7.74975V6.49988Z" fill="#131523"/>
<path fill-rule="evenodd" clip-rule="evenodd" d="M16.2322 3H17.5178C17.9685 3 18.3322 3 18.6285 3.02025C18.9326 3.04087 19.2019 3.08475 19.4569 3.19012C20.0694 3.44387 20.5561 3.93056 20.8099 4.54312C20.9152 4.79812 20.9591 5.06737 20.9797 5.37187C21 5.66775 21 6.0315 21 6.48225V7.76775C21 8.2185 21 8.58225 20.9797 8.8785C20.9591 9.18263 20.9152 9.45188 20.8099 9.70687C20.5561 10.3193 20.0694 10.8059 19.4569 11.0595C19.2019 11.1652 18.9326 11.2091 18.6281 11.2297C18.3322 11.25 17.9685 11.25 17.5178 11.25H16.2322C15.7815 11.25 15.4178 11.25 15.1215 11.2297C14.8174 11.2091 14.5481 11.1652 14.2931 11.0595C13.6806 10.8059 13.1939 10.3193 12.9401 9.70687C12.8347 9.45188 12.7909 9.18262 12.7703 8.87812C12.75 8.58262 12.75 8.21887 12.75 7.76813V6.48263C12.75 6.03188 12.75 5.66812 12.7703 5.37187C12.7909 5.06775 12.8347 4.7985 12.9401 4.5435C13.1939 3.93093 13.6806 3.44425 14.2931 3.1905C14.5481 3.08513 14.8174 3.04125 15.1219 3.02063C15.4174 3 15.7815 3 16.2322 3ZM15.1898 4.01775C14.9363 4.035 14.7885 4.06762 14.676 4.11412C14.494 4.18951 14.3286 4.30001 14.1893 4.43931C14.05 4.57861 13.9395 4.74399 13.8641 4.926C13.8176 5.0385 13.7854 5.18625 13.7678 5.43975C13.7501 5.69775 13.7501 6.02737 13.7501 6.49988V7.75012C13.7501 8.22262 13.7501 8.55262 13.7678 8.81025C13.785 9.06375 13.8176 9.2115 13.8641 9.324C13.9395 9.50601 14.05 9.67139 14.1893 9.81069C14.3286 9.95 14.494 10.0605 14.676 10.1359C14.7885 10.1824 14.9363 10.2146 15.1898 10.2322C15.4478 10.2499 15.7774 10.2499 16.2499 10.2499H17.5001C17.9726 10.2499 18.3026 10.2499 18.5602 10.2322C18.8137 10.215 18.9615 10.1824 19.074 10.1359C19.256 10.0605 19.4214 9.95 19.5607 9.81069C19.7 9.67139 19.8105 9.50601 19.8859 9.324C19.9324 9.2115 19.9646 9.06375 19.9822 8.81025C19.9999 8.55225 19.9999 8.22262 19.9999 7.75012V6.49988C19.9999 6.02737 19.9999 5.69737 19.9822 5.43975C19.965 5.18625 19.9324 5.0385 19.8859 4.926C19.8105 4.74399 19.7 4.57861 19.5607 4.43931C19.4214 4.30001 19.256 4.18951 19.074 4.11412C18.9615 4.06762 18.8137 4.03537 18.5602 4.01775C18.3022 4.00012 17.9726 4.00012 17.5001 4.00012H16.2499C15.7774 4.00012 15.4474 4.00012 15.1898 4.01775Z" fill="#131523"/>
<path d="M13.2499 16.2499C13.2499 15.318 13.2499 14.8523 13.4021 14.4844C13.5027 14.2417 13.65 14.0213 13.8358 13.8356C14.0215 13.6499 14.2421 13.5026 14.4848 13.4021C14.8523 13.2499 15.318 13.2499 16.2499 13.2499H17.5001C18.432 13.2499 18.8978 13.2499 19.2653 13.4021C19.5079 13.5026 19.7285 13.6499 19.9142 13.8356C20.1 14.0213 20.2473 14.2417 20.3479 14.4844C20.5001 14.8519 20.5001 15.318 20.5001 16.2499V17.4998C20.5001 18.4316 20.5001 18.8978 20.3479 19.2653C20.1448 19.7553 19.7554 20.1446 19.2653 20.3475C18.8978 20.4998 18.432 20.4998 17.5001 20.4998H16.2499C15.318 20.4998 14.8523 20.4998 14.4848 20.3475C13.9947 20.1446 13.6052 19.7553 13.4021 19.2653C13.2499 18.8978 13.2499 18.4316 13.2499 17.4998V16.2499Z" fill="#131523"/>
<path fill-rule="evenodd" clip-rule="evenodd" d="M16.2322 12.75H17.5178C17.9685 12.75 18.3322 12.75 18.6285 12.7703C18.9326 12.7909 19.2019 12.8347 19.4569 12.9401C19.7602 13.0658 20.0358 13.2499 20.268 13.482C20.5001 13.7142 20.6842 13.9898 20.8099 14.2931C20.9152 14.5481 20.9591 14.8174 20.9797 15.1219C21 15.4178 21 15.7815 21 16.2322V17.5178C21 17.9685 21 18.3322 20.9797 18.6285C20.9591 18.9326 20.9152 19.2019 20.8099 19.4569C20.6842 19.7602 20.5001 20.0358 20.268 20.268C20.0358 20.5001 19.7602 20.6842 19.4569 20.8099C19.2019 20.9152 18.9326 20.9591 18.6281 20.9797C18.3322 21 17.9685 21 17.5178 21H16.2322C15.7815 21 15.4178 21 15.1215 20.9797C14.8174 20.9591 14.5481 20.9152 14.2931 20.8099C13.9898 20.6842 13.7142 20.5001 13.482 20.268C13.2499 20.0358 13.0658 19.7602 12.9401 19.4569C12.8347 19.2019 12.7909 18.9326 12.7703 18.6281C12.75 18.3326 12.75 17.9689 12.75 17.5181V16.2326C12.75 15.7819 12.75 15.4181 12.7703 15.1219C12.7909 14.8178 12.8347 14.5485 12.9401 14.2935C13.0658 13.9902 13.2499 13.7146 13.482 13.4824C13.7142 13.2503 13.9898 13.0661 14.2931 12.9405C14.5481 12.8351 14.8174 12.7913 15.1219 12.7706C15.4174 12.75 15.7815 12.75 16.2322 12.75ZM15.1898 13.7678C14.9363 13.785 14.7885 13.8176 14.676 13.8641C14.494 13.9395 14.3286 14.05 14.1893 14.1893C14.05 14.3286 13.9395 14.494 13.8641 14.676C13.8176 14.7885 13.7854 14.9363 13.7678 15.1898C13.7501 15.4478 13.7501 15.7774 13.7501 16.2499V17.5001C13.7501 17.9726 13.7501 18.3026 13.7678 18.5602C13.785 18.8137 13.8176 18.9615 13.8641 19.074C13.9395 19.256 14.05 19.4214 14.1893 19.5607C14.3286 19.7 14.494 19.8105 14.676 19.8859C14.7885 19.9324 14.9363 19.9646 15.1898 19.9822C15.4478 19.9999 15.7774 19.9999 16.2499 19.9999H17.5001C17.9726 19.9999 18.3026 19.9999 18.5602 19.9822C18.8137 19.965 18.9615 19.9324 19.074 19.8859C19.256 19.8105 19.4214 19.7 19.5607 19.5607C19.7 19.4214 19.8105 19.256 19.8859 19.074C19.9324 18.9615 19.9646 18.8137 19.9822 18.5602C19.9999 18.3022 19.9999 17.9726 19.9999 17.5001V16.2499C19.9999 15.7774 19.9999 15.4474 19.9822 15.1898C19.965 14.9363 19.9324 14.7885 19.8859 14.676C19.8105 14.494 19.7 14.3286 19.5607 14.1893C19.4214 14.05 19.256 13.9395 19.074 13.8641C18.9615 13.8176 18.8137 13.7854 18.5602 13.7678C18.3022 13.7501 17.9726 13.7501 17.5001 13.7501H16.2499C15.7774 13.7501 15.4474 13.7501 15.1898 13.7678Z" fill="#131523"/>
</svg>
