<svg width="32" height="32" viewBox="0 0 32 32" fill="none" xmlns="http://www.w3.org/2000/svg">
<path opacity="0.1" d="M16 32C24.8366 32 32 24.8366 32 16C32 7.16344 24.8366 0 16 0C7.16344 0 0 7.16344 0 16C0 24.8366 7.16344 32 16 32Z" fill="#662D91"/>
<mask id="mask0_95_3421" style="mask-type:luminance" maskUnits="userSpaceOnUse" x="0" y="0" width="32" height="32">
<path d="M16 32C24.8366 32 32 24.8366 32 16C32 7.16344 24.8366 0 16 0C7.16344 0 0 7.16344 0 16C0 24.8366 7.16344 32 16 32Z" fill="white"/>
</mask>
<g mask="url(#mask0_95_3421)">
<path fill-rule="evenodd" clip-rule="evenodd" d="M14.7744 24.4941L17.2051 21.799C17.2461 21.7586 17.2188 21.6912 17.1505 21.6912H14.4739C14.4603 21.6912 14.433 21.6777 14.4193 21.6642L12.1524 19.1578C12.1387 19.1308 12.1251 19.1039 12.1387 19.0769L15.9351 12.6491C15.9488 12.6221 15.9488 12.5952 15.9351 12.5817L14.3647 9.91353C14.3374 9.87311 14.2691 9.87311 14.2418 9.91353L8.62914 19.4273C8.61548 19.4542 8.61548 19.4812 8.62914 19.5081L13.1356 24.5076C13.1493 24.5211 13.1629 24.5345 13.1903 24.5345H14.7197C14.7334 24.5211 14.7607 24.5076 14.7744 24.4941Z" fill="white"/>
<path d="M14.8562 8.86244C14.8425 8.88939 14.8425 8.91634 14.8562 8.92982L16.4949 11.7058L20.8375 19.0634C20.8512 19.0904 20.8512 19.1173 20.8239 19.1443L18.5297 21.6777L16.0852 24.3998C16.0443 24.4402 16.0716 24.5076 16.1399 24.5076H19.7997C19.8133 24.5076 19.8406 24.4941 19.8543 24.4806L24.3608 19.4812C24.3744 19.4542 24.3881 19.4273 24.3744 19.4003L16.5495 6.19427C16.5359 6.14037 16.4676 6.14037 16.4403 6.19427L14.8562 8.86244Z" fill="white"/>
</g>
</svg>
