<svg width="169" height="36" viewBox="0 0 169 36" fill="none" xmlns="http://www.w3.org/2000/svg">
<path d="M1.99998 33C2.17718 32.9997 2.35111 32.9523 2.50397 32.8627C2.65684 32.773 2.78315 32.6444 2.86998 32.49C2.91998 32.4 7.45998 24.41 12.5 26.87C13 27.19 16.24 29.13 19.63 28.29C20.6916 27.9941 21.6771 27.473 22.5192 26.762C23.3613 26.0511 24.0403 25.167 24.51 24.17C25.5367 22.1502 25.8873 19.854 25.51 17.62C25.23 15.74 25.51 13.11 26.85 11.8C27.2446 11.4282 27.7249 11.1598 28.2483 11.0185C28.7717 10.8771 29.3219 10.8674 29.85 10.99C30.0465 11.02 30.2475 10.9908 30.4273 10.9061C30.6071 10.8214 30.7576 10.685 30.8595 10.5144C30.9615 10.3437 31.0103 10.1466 30.9997 9.94808C30.9891 9.74958 30.9195 9.55876 30.8 9.39996C30.46 8.99996 27.4 4.99996 24 4.99996C22.652 4.98408 21.3289 5.36283 20.1935 6.08955C19.0581 6.81627 18.16 7.85923 17.61 9.08996C16.3 7.83996 14.06 6.25996 11.68 7.08996C9.75998 7.72996 4.95998 6.21996 2.38998 5.08996C2.22586 5.02247 2.04675 4.99987 1.87101 5.02447C1.69528 5.04908 1.52925 5.12 1.38998 5.22996C1.24205 5.34596 1.1298 5.5013 1.06613 5.67817C1.00245 5.85505 0.989925 6.04629 1.02998 6.22996C1.09998 6.65996 2.83998 15.79 9.39998 19.87C6.20998 21.18 0.999979 24.54 0.999979 32C0.992794 32.2271 1.06315 32.4498 1.19948 32.6316C1.3358 32.8133 1.52996 32.9433 1.74998 33C1.83303 33.0097 1.91693 33.0097 1.99998 33ZM10.46 24.37C7.68998 24.37 5.30998 26.24 3.63998 28.07C5.63998 22.36 11.88 21.07 12.2 20.98C12.414 20.9376 12.6084 20.8265 12.7533 20.6634C12.8983 20.5004 12.986 20.2944 13.003 20.0768C13.02 19.8593 12.9654 19.6422 12.8475 19.4586C12.7296 19.275 12.5549 19.135 12.35 19.06C6.87998 17.06 4.34998 10.76 3.44998 7.63996C5.85998 8.50996 9.99998 9.72996 12.32 8.99996C14.64 8.26996 17.17 11.57 17.2 11.6C17.3138 11.7607 17.4726 11.8842 17.6563 11.955C17.8401 12.0258 18.0407 12.0408 18.2329 11.9981C18.4251 11.9554 18.6005 11.8568 18.7369 11.7148C18.8734 11.5729 18.9649 11.3937 19 11.2C19 11 19.9 6.99996 24 6.99996C25.3 6.99996 26.75 8.05996 27.83 9.07996C26.9344 9.28243 26.1155 9.737 25.47 10.39C23.54 12.32 23.24 15.65 23.57 17.91C23.8758 19.7221 23.5882 21.5845 22.75 23.22C22.4056 23.9667 21.9066 24.6319 21.286 25.1715C20.6654 25.7111 19.9374 26.1127 19.15 26.35C16.43 27.03 13.58 25.19 13.55 25.17C13.5214 25.1429 13.4873 25.1224 13.45 25.11C12.5262 24.6295 11.5013 24.3758 10.46 24.37Z" fill="#FBFBFB"/>
<path d="M24.91 27.8C25.0644 27.8012 25.217 27.7666 25.3558 27.6989C25.4945 27.6312 25.6158 27.5324 25.71 27.41C26.1357 26.8437 26.5168 26.2452 26.85 25.62C28.1859 23.0433 28.6524 20.1037 28.18 17.24C28.0785 16.518 28.0384 15.7887 28.06 15.06C28.0639 14.9287 28.042 14.7979 27.9953 14.675C27.9487 14.5522 27.8784 14.4397 27.7883 14.3441C27.6982 14.2485 27.5902 14.1715 27.4704 14.1176C27.3506 14.0637 27.2213 14.0339 27.09 14.03C26.9587 14.0261 26.8278 14.048 26.705 14.0946C26.5822 14.1412 26.4697 14.2116 26.3741 14.3017C26.2784 14.3917 26.2015 14.4998 26.1476 14.6196C26.0937 14.7394 26.0639 14.8687 26.06 15C26.0352 15.8458 26.082 16.6921 26.2 17.53C26.6133 19.9674 26.2237 22.4731 25.09 24.67C24.7943 25.2005 24.4601 25.7085 24.09 26.19C23.9287 26.3997 23.8571 26.6648 23.8908 26.9272C23.9245 27.1896 24.0609 27.4279 24.27 27.59C24.4526 27.7319 24.6788 27.8061 24.91 27.8ZM21.95 30.32C22.1065 30.3191 22.2607 30.2814 22.4 30.21C22.7899 30.0157 23.1644 29.7917 23.52 29.54C23.7155 29.3798 23.8432 29.1515 23.8772 28.901C23.9113 28.6505 23.8492 28.3964 23.7034 28.1899C23.5577 27.9833 23.3392 27.8396 23.0918 27.7877C22.8443 27.7358 22.5865 27.7795 22.37 27.91C22.096 28.1005 21.8085 28.2709 21.51 28.42C21.3059 28.5188 21.1415 28.684 21.0437 28.8885C20.9459 29.0931 20.9205 29.3247 20.9716 29.5456C21.0228 29.7665 21.1475 29.9634 21.3252 30.1041C21.503 30.2448 21.7233 30.3209 21.95 30.32Z" fill="#FBFBFB"/>
<path d="M7.99996 13C8.23419 12.9974 8.46009 12.9127 8.63825 12.7606C8.8164 12.6085 8.93551 12.3987 8.97479 12.1678C9.01407 11.9368 8.97104 11.6994 8.85319 11.497C8.73535 11.2945 8.55017 11.1399 8.32996 11.06C6.6286 10.4372 5.06086 9.49728 3.70996 8.29C3.61672 8.19676 3.50603 8.1228 3.38421 8.07234C3.26238 8.02188 3.13182 7.99591 2.99996 7.99591C2.8681 7.99591 2.73753 8.02188 2.61571 8.07234C2.49389 8.1228 2.3832 8.19676 2.28996 8.29C2.19672 8.38324 2.12276 8.49393 2.0723 8.61575C2.02184 8.73758 1.99587 8.86814 1.99587 9C1.99587 9.13186 2.02184 9.26243 2.0723 9.38425C2.12276 9.50607 2.19672 9.61676 2.28996 9.71C3.85078 11.1481 5.67865 12.2659 7.66996 13C7.77948 13.0145 7.89043 13.0145 7.99996 13Z" fill="#FBFBFB"/>
<path d="M9.99996 17C10.2342 16.9974 10.4601 16.9127 10.6382 16.7606C10.8164 16.6085 10.9355 16.3987 10.9748 16.1678C11.0141 15.9368 10.971 15.6994 10.8532 15.497C10.7353 15.2945 10.5502 15.1399 10.33 15.06C8.6286 14.4372 7.06086 13.4973 5.70996 12.29C5.52165 12.1017 5.26626 11.9959 4.99996 11.9959C4.73366 11.9959 4.47826 12.1017 4.28996 12.29C4.10166 12.4783 3.99587 12.7337 3.99587 13C3.99587 13.2663 4.10166 13.5217 4.28996 13.71C5.85078 15.1481 7.67865 16.2659 9.66996 17C9.77948 17.0145 9.89043 17.0145 9.99996 17Z" fill="#FBFBFB"/>
<path d="M23 10C22.4477 10 22 9.55228 22 9C22 8.44772 22.4477 8 23 8C23.5523 8 24 8.44772 24 9C24 9.55228 23.5523 10 23 10Z" fill="#FBFBFB"/>
<path d="M46.224 15.336C46.224 14.664 45.96 14.08 45.432 13.584C44.92 13.088 44.192 12.84 43.248 12.84C42.448 12.84 41.816 13.008 41.352 13.344C40.888 13.664 40.656 14.104 40.656 14.664C40.656 14.952 40.712 15.216 40.824 15.456C40.936 15.68 41.128 15.888 41.4 16.08C41.688 16.256 42.056 16.416 42.504 16.56C42.968 16.704 43.552 16.84 44.256 16.968C46.016 17.288 47.36 17.824 48.288 18.576C49.216 19.328 49.68 20.44 49.68 21.912V22.2C49.68 22.984 49.536 23.696 49.248 24.336C48.976 24.96 48.576 25.496 48.048 25.944C47.52 26.392 46.88 26.736 46.128 26.976C45.376 27.216 44.528 27.336 43.584 27.336C42.48 27.336 41.504 27.184 40.656 26.88C39.824 26.56 39.128 26.128 38.568 25.584C38.008 25.024 37.584 24.376 37.296 23.64C37.008 22.888 36.864 22.072 36.864 21.192V20.472H40.032V21.048C40.032 22.056 40.32 22.864 40.896 23.472C41.488 24.064 42.4 24.36 43.632 24.36C44.592 24.36 45.304 24.152 45.768 23.736C46.232 23.32 46.464 22.824 46.464 22.248C46.464 21.976 46.416 21.72 46.32 21.48C46.224 21.224 46.056 21 45.816 20.808C45.576 20.6 45.248 20.416 44.832 20.256C44.416 20.096 43.888 19.96 43.248 19.848C42.4 19.704 41.624 19.52 40.92 19.296C40.216 19.056 39.6 18.744 39.072 18.36C38.56 17.976 38.16 17.496 37.872 16.92C37.584 16.344 37.44 15.64 37.44 14.808V14.664C37.44 13.976 37.576 13.344 37.848 12.768C38.136 12.176 38.528 11.664 39.024 11.232C39.536 10.8 40.144 10.464 40.848 10.224C41.568 9.984 42.368 9.864 43.248 9.864C44.24 9.864 45.12 10.008 45.888 10.296C46.656 10.568 47.296 10.944 47.808 11.424C48.336 11.904 48.728 12.456 48.984 13.08C49.256 13.704 49.392 14.36 49.392 15.048V15.912H46.224V15.336ZM64.2313 27H58.9993L58.3273 17.976V16.536H57.7513V17.976L57.0793 27H51.8473L51.0553 15.096H53.8393L54.3673 24.12V25.56H54.9433V24.12L55.5433 15.096H60.5353L61.1353 24.12V25.56H61.7113V24.12L62.2393 15.096H65.0233L64.2313 27ZM67.4786 24.12H71.5106V17.976H67.7666V15.096H74.5346V24.12H77.9906V27H67.4786V24.12ZM75.2786 11.568C75.2786 11.888 75.2146 12.192 75.0866 12.48C74.9746 12.752 74.8146 12.992 74.6066 13.2C74.3986 13.392 74.1506 13.552 73.8626 13.68C73.5906 13.792 73.3026 13.848 72.9986 13.848C72.6786 13.848 72.3826 13.792 72.1106 13.68C71.8386 13.552 71.5986 13.392 71.3906 13.2C71.1826 12.992 71.0146 12.752 70.8866 12.48C70.7746 12.192 70.7186 11.888 70.7186 11.568C70.7186 11.248 70.7746 10.952 70.8866 10.68C71.0146 10.392 71.1826 10.152 71.3906 9.96C71.5986 9.752 71.8386 9.592 72.1106 9.48C72.3826 9.352 72.6786 9.288 72.9986 9.288C73.3026 9.288 73.5906 9.352 73.8626 9.48C74.1506 9.592 74.3986 9.752 74.6066 9.96C74.8146 10.152 74.9746 10.392 75.0866 10.68C75.2146 10.952 75.2786 11.248 75.2786 11.568ZM81.8619 15.096H85.2459V12.648C85.2459 11.96 85.4779 11.384 85.9419 10.92C86.4059 10.44 86.9819 10.2 87.6699 10.2H92.5179V13.08H88.9179C88.4859 13.08 88.2699 13.32 88.2699 13.8V15.096H92.9499V17.976H88.2699V27H85.2459V17.976H81.8619V15.096ZM96.3173 15.096H99.8453V10.2H102.869V15.096H107.165V17.976H102.869V23.4C102.869 23.88 103.085 24.12 103.517 24.12H106.733V27H101.693C101.149 27 100.701 26.824 100.349 26.472C100.013 26.12 99.8453 25.672 99.8453 25.128V17.976H96.3173V15.096ZM119.701 15.336C119.701 14.664 119.437 14.08 118.909 13.584C118.397 13.088 117.669 12.84 116.725 12.84C115.925 12.84 115.293 13.008 114.829 13.344C114.365 13.664 114.133 14.104 114.133 14.664C114.133 14.952 114.189 15.216 114.301 15.456C114.413 15.68 114.605 15.888 114.877 16.08C115.165 16.256 115.533 16.416 115.981 16.56C116.445 16.704 117.029 16.84 117.733 16.968C119.493 17.288 120.837 17.824 121.765 18.576C122.693 19.328 123.157 20.44 123.157 21.912V22.2C123.157 22.984 123.013 23.696 122.725 24.336C122.453 24.96 122.053 25.496 121.525 25.944C120.997 26.392 120.357 26.736 119.605 26.976C118.853 27.216 118.005 27.336 117.061 27.336C115.957 27.336 114.981 27.184 114.133 26.88C113.301 26.56 112.605 26.128 112.045 25.584C111.485 25.024 111.061 24.376 110.773 23.64C110.485 22.888 110.341 22.072 110.341 21.192V20.472H113.509V21.048C113.509 22.056 113.797 22.864 114.373 23.472C114.965 24.064 115.877 24.36 117.109 24.36C118.069 24.36 118.781 24.152 119.245 23.736C119.709 23.32 119.941 22.824 119.941 22.248C119.941 21.976 119.893 21.72 119.797 21.48C119.701 21.224 119.533 21 119.293 20.808C119.053 20.6 118.725 20.416 118.309 20.256C117.893 20.096 117.365 19.96 116.725 19.848C115.877 19.704 115.101 19.52 114.397 19.296C113.693 19.056 113.077 18.744 112.549 18.36C112.037 17.976 111.637 17.496 111.349 16.92C111.061 16.344 110.917 15.64 110.917 14.808V14.664C110.917 13.976 111.053 13.344 111.325 12.768C111.613 12.176 112.005 11.664 112.501 11.232C113.013 10.8 113.621 10.464 114.325 10.224C115.045 9.984 115.845 9.864 116.725 9.864C117.717 9.864 118.597 10.008 119.365 10.296C120.133 10.568 120.773 10.944 121.285 11.424C121.813 11.904 122.205 12.456 122.461 13.08C122.733 13.704 122.869 14.36 122.869 15.048V15.912H119.701V15.336ZM137.708 27H132.476L131.804 17.976V16.536H131.228V17.976L130.556 27H125.324L124.532 15.096H127.316L127.844 24.12V25.56H128.42V24.12L129.02 15.096H134.012L134.612 24.12V25.56H135.188V24.12L135.716 15.096H138.5L137.708 27ZM148.443 25.272C148.123 26.024 147.675 26.56 147.099 26.88C146.523 27.184 145.851 27.336 145.083 27.336C144.363 27.336 143.683 27.2 143.043 26.928C142.419 26.656 141.867 26.256 141.387 25.728C140.907 25.2 140.523 24.56 140.235 23.808C139.963 23.056 139.827 22.2 139.827 21.24V20.856C139.827 19.912 139.963 19.064 140.235 18.312C140.507 17.56 140.875 16.92 141.339 16.392C141.803 15.864 142.339 15.464 142.947 15.192C143.571 14.904 144.235 14.76 144.939 14.76C145.787 14.76 146.467 14.904 146.979 15.192C147.507 15.48 147.923 15.928 148.227 16.536H148.659V15.096H151.683V23.4C151.683 23.88 151.899 24.12 152.331 24.12H152.787V27H150.723C150.179 27 149.731 26.84 149.379 26.52C149.043 26.2 148.875 25.784 148.875 25.272H148.443ZM145.755 24.456C146.635 24.456 147.339 24.168 147.867 23.592C148.395 23 148.659 22.2 148.659 21.192V20.904C148.659 19.896 148.395 19.104 147.867 18.528C147.339 17.936 146.635 17.64 145.755 17.64C144.875 17.64 144.171 17.936 143.643 18.528C143.115 19.104 142.851 19.896 142.851 20.904V21.192C142.851 22.2 143.115 23 143.643 23.592C144.171 24.168 144.875 24.456 145.755 24.456ZM157.835 31.8H154.811V15.096H157.835V16.824H158.267C158.587 16.168 159.051 15.664 159.659 15.312C160.267 14.944 161.043 14.76 161.987 14.76C162.691 14.76 163.355 14.896 163.979 15.168C164.619 15.44 165.171 15.84 165.635 16.368C166.115 16.88 166.491 17.512 166.763 18.264C167.051 19.016 167.195 19.872 167.195 20.832V21.264C167.195 22.24 167.059 23.104 166.786 23.856C166.515 24.608 166.147 25.248 165.682 25.776C165.219 26.288 164.667 26.68 164.027 26.952C163.403 27.208 162.723 27.336 161.987 27.336C161.443 27.336 160.971 27.28 160.571 27.168C160.171 27.056 159.819 26.904 159.515 26.712C159.227 26.52 158.979 26.304 158.771 26.064C158.579 25.808 158.411 25.544 158.267 25.272H157.835V31.8ZM161.003 24.456C161.947 24.456 162.707 24.168 163.283 23.592C163.875 23 164.171 22.2 164.171 21.192V20.904C164.171 19.896 163.875 19.104 163.283 18.528C162.707 17.936 161.947 17.64 161.003 17.64C160.059 17.64 159.291 17.944 158.699 18.552C158.123 19.144 157.835 19.928 157.835 20.904V21.192C157.835 22.168 158.123 22.96 158.699 23.568C159.291 24.16 160.059 24.456 161.003 24.456Z" fill="#FBFBFB"/>
</svg>
