<svg width="376" height="240" viewBox="0 0 376 240" fill="none" xmlns="http://www.w3.org/2000/svg">
<path d="M0 16C0 7.16344 7.16344 0 16 0H360C368.837 0 376 7.16344 376 16V240H0V16Z" fill="#FBFBFB"/>
<g clip-path="url(#clip0_30_1854)">
<path d="M308 0H68V240H308V0Z" fill="white"/>
<path d="M256.099 184.643C252.451 188.483 249 190.959 246.273 192.916C214.219 215.915 176.291 209.211 168.23 207.574C156.327 205.156 133.318 200.483 116.683 180.92C91.5156 151.323 95.4345 104.695 114.956 73.9142C118.527 68.284 137.389 37.0347 175.725 32.0233C198.926 28.9905 225.971 35.1074 245.556 51.5161C286.668 85.9596 283.741 155.542 256.099 184.643Z" fill="url(#paint0_linear_30_1854)"/>
<g opacity="0.92">
<path d="M146.573 153.847C156.401 147.803 158.594 129.294 152.371 123.773C148.165 120.042 142.844 124.66 137.125 120.889C129.824 116.074 134.206 105.717 127.839 93.1408C122.422 82.4388 110.567 72.7908 104.225 75.3949C97.5876 78.1207 95.1914 95.011 101.709 104.609C105.948 110.851 111.749 110.76 113.434 116.726C115.388 123.649 108.588 127.353 109.035 134.168C109.837 146.409 133.572 161.843 146.573 153.847Z" fill="#7D97F4"/>
<path d="M141.399 158.916C141.46 158.911 141.521 158.894 141.577 158.861C141.776 158.746 141.845 158.491 141.73 158.292C126.216 131.375 119.946 99.3135 119.885 98.9928C119.841 98.7668 119.623 98.6185 119.397 98.6621C119.171 98.7054 119.023 98.9238 119.066 99.1499C119.128 99.4719 125.424 131.671 141.008 158.708C141.09 158.851 141.245 158.927 141.399 158.916Z" fill="#91B3FA"/>
<path d="M109.884 108.123C109.927 108.12 109.969 108.103 110.003 108.073C110.085 107.999 110.092 107.873 110.018 107.791C105.357 102.613 100.038 94.7145 101.165 86.4884C101.836 81.5894 104.513 78.8687 104.54 78.8418C104.618 78.7641 104.618 78.6382 104.54 78.5602C104.463 78.4823 104.336 78.4821 104.259 78.56C104.145 78.6736 101.459 81.4035 100.77 86.4345C100.137 91.0582 101.175 98.5631 109.722 108.058C109.765 108.105 109.825 108.127 109.884 108.123Z" fill="#BDD0FB"/>
<path d="M147.32 151.347C147.383 151.343 147.444 151.308 147.478 151.249C153.36 141.203 155.071 133.643 152.565 128.778C150.336 124.452 145.452 123.965 145.403 123.961C145.293 123.952 145.197 124.032 145.187 124.141C145.177 124.251 145.258 124.348 145.367 124.357C145.414 124.362 150.088 124.833 152.213 128.965C154.649 133.701 152.94 141.131 147.134 151.048C147.079 151.143 147.111 151.265 147.206 151.32C147.242 151.342 147.281 151.35 147.32 151.347Z" fill="#F0F0F0"/>
</g>
<path d="M159.106 158.086C150.655 160.41 139.042 151.843 134.788 141.883C130.411 131.633 136.752 126.758 135.663 112.18C134.426 95.6202 125.632 93.7371 118.344 71.8161C116.699 66.8703 107.183 38.2492 116.017 32.1288C124.185 26.4699 149.17 39.264 154.688 57.5226C158.624 70.5419 149.765 76.7563 154.396 91.9166C158.46 105.219 166.624 104.834 170.675 117.659C175.607 133.271 170.202 155.034 159.106 158.086Z" fill="#91B3FA"/>
<path d="M158.769 162.143C159.81 144.132 153.342 116.921 147.732 97.2645C141.66 75.9833 135.258 58.7277 135.194 58.5558L134.495 58.8159C134.559 58.9875 140.952 76.2202 147.017 97.4743C152.61 117.073 159.059 144.195 158.024 162.1L158.769 162.143Z" fill="url(#paint1_linear_30_1854)"/>
<path d="M196.293 182.093C235.212 182.093 266.762 150.543 266.762 111.624C266.762 72.7053 235.212 41.1554 196.293 41.1554C157.374 41.1554 125.824 72.7053 125.824 111.624C125.824 150.543 157.374 182.093 196.293 182.093Z" fill="url(#paint2_linear_30_1854)"/>
<path d="M196.293 171.766C229.508 171.766 256.435 144.84 256.435 111.624C256.435 78.4084 229.508 51.4817 196.293 51.4817C163.077 51.4817 136.15 78.4084 136.15 111.624C136.15 144.84 163.077 171.766 196.293 171.766Z" fill="url(#paint3_linear_30_1854)"/>
<path d="M196.293 172.958C179.91 172.958 164.508 166.578 152.923 154.994C141.339 143.409 134.959 128.007 134.959 111.624C134.959 95.241 141.339 79.8388 152.923 68.2542C164.508 56.6698 179.91 50.2899 196.293 50.2899C212.676 50.2899 228.078 56.6698 239.662 68.2542C251.247 79.8388 257.627 95.241 257.627 111.624C257.627 128.007 251.247 143.409 239.662 154.994C228.078 166.578 212.676 172.958 196.293 172.958ZM196.293 52.6735C163.787 52.6735 137.342 79.1187 137.342 111.624C137.342 144.129 163.787 170.575 196.293 170.575C228.798 170.575 255.243 144.129 255.243 111.624C255.243 79.1187 228.798 52.6735 196.293 52.6735Z" fill="url(#paint4_linear_30_1854)"/>
<path d="M196.293 148.29C216.543 148.29 232.959 131.874 232.959 111.624C232.959 91.3742 216.543 74.9585 196.293 74.9585C176.043 74.9585 159.627 91.3742 159.627 111.624C159.627 131.874 176.043 148.29 196.293 148.29Z" fill="url(#paint5_linear_30_1854)"/>
<path d="M196.293 149.481C175.418 149.481 158.435 132.499 158.435 111.624C158.435 90.7494 175.418 73.7665 196.293 73.7665C217.167 73.7665 234.15 90.7494 234.15 111.624C234.15 132.499 217.168 149.481 196.293 149.481ZM196.293 76.1502C176.733 76.1502 160.819 92.0637 160.819 111.624C160.819 131.184 176.733 147.098 196.293 147.098C215.853 147.098 231.767 131.184 231.767 111.624C231.767 92.0637 215.853 76.1502 196.293 76.1502Z" fill="url(#paint6_linear_30_1854)"/>
<path d="M196.293 125.829C204.138 125.829 210.498 119.469 210.498 111.624C210.498 103.779 204.138 97.4187 196.293 97.4187C188.447 97.4187 182.087 103.779 182.087 111.624C182.087 119.469 188.447 125.829 196.293 125.829Z" fill="url(#paint7_linear_30_1854)"/>
<path d="M196.293 127.021C187.803 127.021 180.895 120.114 180.895 111.624C180.895 103.134 187.803 96.2268 196.293 96.2268C204.783 96.2268 211.69 103.134 211.69 111.624C211.69 120.114 204.783 127.021 196.293 127.021ZM196.293 98.6105C189.117 98.6105 183.279 104.448 183.279 111.624C183.279 118.8 189.117 124.637 196.293 124.637C203.468 124.637 209.306 118.8 209.306 111.624C209.306 104.448 203.468 98.6105 196.293 98.6105Z" fill="url(#paint8_linear_30_1854)"/>
<path d="M268.125 37.795L269.773 39.4432L207.359 101.857L205.71 100.209L268.125 37.795Z" fill="url(#paint9_linear_30_1854)"/>
<path d="M206.878 96.2323C207.823 95.2867 212.281 99.7445 211.336 100.69L194.802 113.688C194.191 114.168 193.4 113.377 193.88 112.766L206.878 96.2323Z" fill="url(#paint10_linear_30_1854)"/>
<path d="M269.737 39.4789L278.134 40.3134L266.607 51.8404C262.83 55.6171 257.559 57.5007 252.244 56.9724L269.737 39.4789Z" fill="url(#paint11_linear_30_1854)"/>
<path d="M268.089 37.8306L267.255 29.434L255.728 40.961C251.951 44.7377 250.067 50.0093 250.596 55.3242L268.089 37.8306Z" fill="url(#paint12_linear_30_1854)"/>
<path d="M275.634 175.339L275.206 174.765C275.194 174.749 275.171 174.716 275.139 174.668C275.022 174.499 274.779 174.148 274.415 173.683C274.316 173.558 274.332 173.363 274.45 173.247C274.568 173.132 274.744 173.14 274.842 173.266C274.998 173.464 275.132 173.642 275.244 173.795C275.298 173.711 275.388 173.657 275.485 173.66C275.639 173.663 275.755 173.804 275.744 173.974C275.721 174.365 275.702 174.578 275.702 174.578L275.634 175.339ZM275.615 172.24C275.591 172.249 275.565 172.254 275.538 172.255C275.384 172.259 275.262 172.125 275.265 171.954C275.278 171.294 275.279 170.619 275.269 169.946C275.267 169.776 275.389 169.629 275.544 169.619C275.697 169.608 275.824 169.737 275.827 169.907C275.836 170.587 275.835 171.271 275.822 171.938C275.82 172.079 275.732 172.2 275.615 172.24ZM273.468 172.343C273.375 172.375 273.272 172.354 273.2 172.278C272.765 171.822 272.316 171.398 271.865 171.018C271.746 170.917 271.727 170.724 271.824 170.586C271.921 170.45 272.096 170.419 272.216 170.52C272.681 170.913 273.144 171.35 273.592 171.82C273.702 171.934 273.702 172.13 273.593 172.256C273.557 172.298 273.514 172.327 273.468 172.343ZM270.628 169.968C270.556 169.993 270.477 169.987 270.41 169.944C269.888 169.612 269.357 169.334 268.833 169.115C268.691 169.057 268.625 168.879 268.685 168.719C268.745 168.559 268.908 168.477 269.05 168.536C269.601 168.766 270.157 169.058 270.703 169.405C270.834 169.488 270.874 169.676 270.793 169.824C270.754 169.896 270.694 169.945 270.628 169.968ZM275.558 168.207C275.539 168.213 275.52 168.217 275.5 168.219C275.347 168.236 275.216 168.112 275.208 167.943C275.176 167.277 275.134 166.605 275.08 165.947C275.067 165.779 275.181 165.623 275.333 165.6C275.486 165.577 275.622 165.695 275.635 165.864C275.689 166.529 275.732 167.208 275.764 167.882C275.771 168.03 275.682 168.164 275.558 168.207ZM267.278 168.6C267.237 168.615 267.193 168.618 267.149 168.61C266.736 168.534 266.318 168.494 265.907 168.49C265.724 168.489 265.546 168.483 265.374 168.475C265.221 168.468 265.108 168.324 265.122 168.154C265.136 167.984 265.271 167.851 265.425 167.859C265.59 167.867 265.761 167.872 265.937 167.873C266.377 167.877 266.824 167.92 267.265 168.001C267.416 168.029 267.512 168.188 267.48 168.356C267.457 168.475 267.377 168.566 267.278 168.6ZM260.465 170.445L259.926 170.62C259.796 170.205 259.543 169.912 259.08 169.637C258.947 169.558 258.902 169.372 258.98 169.221C259.057 169.07 259.228 169.011 259.361 169.09C259.727 169.308 259.997 169.548 260.189 169.835C260.304 169.852 260.399 169.948 260.417 170.082L260.465 170.445ZM263.677 168.219C263.632 168.235 263.583 168.238 263.535 168.227C262.877 168.07 262.287 167.841 261.78 167.547C261.647 167.469 261.6 167.283 261.677 167.131C261.753 166.979 261.923 166.92 262.057 166.997C262.521 167.267 263.066 167.478 263.676 167.623C263.825 167.658 263.914 167.822 263.875 167.989C263.849 168.102 263.771 168.187 263.677 168.219ZM275.233 164.204C275.221 164.208 275.209 164.211 275.197 164.213C275.044 164.243 274.904 164.131 274.885 163.963C274.808 163.3 274.717 162.637 274.617 161.994C274.591 161.827 274.694 161.664 274.845 161.626C274.997 161.59 275.141 161.695 275.167 161.861C275.268 162.513 275.359 163.184 275.437 163.855C275.455 164.01 275.366 164.158 275.233 164.204ZM259.961 168.444C259.949 168.448 259.937 168.451 259.925 168.453C259.773 168.484 259.633 168.372 259.613 168.204C259.52 167.43 259.447 166.755 259.394 166.199C259.378 166.031 259.491 165.875 259.642 165.848C259.795 165.822 259.932 165.938 259.948 166.106C260 166.657 260.073 167.326 260.165 168.095C260.183 168.249 260.094 168.398 259.961 168.444ZM257.635 168.909C257.578 168.929 257.515 168.93 257.455 168.905C256.951 168.695 256.4 168.455 255.784 168.13C255.647 168.058 255.595 167.874 255.666 167.72C255.738 167.565 255.906 167.499 256.042 167.57C256.641 167.886 257.18 168.12 257.673 168.326C257.815 168.385 257.881 168.562 257.821 168.722C257.786 168.815 257.716 168.882 257.635 168.909ZM260.614 166.337C260.509 166.373 260.393 166.34 260.322 166.243C259.907 165.671 259.705 165.109 259.584 164.773C259.546 164.668 259.516 164.582 259.488 164.523C259.401 164.387 259.426 164.177 259.553 164.075C259.68 163.973 259.845 163.984 259.931 164.12C259.946 164.145 259.963 164.175 259.981 164.211C260.017 164.284 260.056 164.39 260.103 164.521C260.22 164.847 260.397 165.338 260.763 165.842C260.857 165.972 260.835 166.167 260.713 166.278C260.683 166.305 260.649 166.325 260.614 166.337ZM274.616 160.258C274.612 160.26 274.608 160.261 274.604 160.263C274.453 160.307 274.305 160.209 274.272 160.044C274.157 159.466 274.03 158.892 273.896 158.339L273.843 158.121C273.802 157.959 273.89 157.785 274.039 157.733C274.039 157.733 274.04 157.733 274.04 157.733C274.188 157.682 274.34 157.77 274.38 157.932L274.435 158.153C274.571 158.715 274.699 159.297 274.816 159.884C274.848 160.044 274.759 160.209 274.616 160.258ZM254.42 167.194C254.345 167.22 254.263 167.212 254.193 167.163C253.695 166.818 253.198 166.429 252.716 166.009C252.598 165.906 252.583 165.712 252.681 165.576C252.78 165.441 252.955 165.414 253.074 165.517C253.541 165.925 254.022 166.301 254.505 166.636C254.632 166.724 254.666 166.914 254.58 167.06C254.541 167.127 254.483 167.172 254.42 167.194ZM251.624 164.766C251.531 164.798 251.428 164.777 251.355 164.7C251.263 164.603 251.17 164.503 251.076 164.402C250.735 164.03 250.414 163.636 250.12 163.229C250.027 163.099 250.049 162.904 250.171 162.794C250.294 162.684 250.468 162.7 250.562 162.83C250.842 163.219 251.15 163.596 251.476 163.952C251.568 164.051 251.659 164.148 251.749 164.244C251.858 164.358 251.858 164.553 251.749 164.679C251.713 164.721 251.67 164.75 251.624 164.766ZM273.657 156.417C273.516 156.466 273.368 156.387 273.322 156.234C273.129 155.603 272.92 154.982 272.701 154.39C272.644 154.235 272.713 154.052 272.855 153.981C272.999 153.905 273.16 153.979 273.218 154.133C273.442 154.737 273.654 155.369 273.85 156.012C273.899 156.171 273.82 156.35 273.674 156.411C273.668 156.413 273.663 156.415 273.657 156.417ZM249.414 161.691C249.293 161.733 249.162 161.682 249.098 161.558C248.8 160.975 248.539 160.358 248.324 159.723C248.271 159.566 248.345 159.385 248.489 159.319C248.637 159.257 248.794 159.326 248.847 159.483C249.052 160.089 249.301 160.678 249.586 161.235C249.661 161.38 249.612 161.57 249.477 161.659C249.456 161.673 249.435 161.684 249.414 161.691ZM272.292 152.75C272.166 152.794 272.03 152.735 271.97 152.603C271.705 152.012 271.42 151.436 271.122 150.889C271.045 150.747 271.089 150.555 271.222 150.462C271.355 150.371 271.525 150.41 271.603 150.553C271.907 151.112 272.2 151.703 272.472 152.308C272.539 152.458 272.481 152.645 272.343 152.727C272.326 152.737 272.309 152.744 272.292 152.75ZM248.155 157.986C248.15 157.987 248.145 157.989 248.14 157.99C247.99 158.033 247.842 157.934 247.81 157.769C247.684 157.111 247.598 156.429 247.555 155.743C247.545 155.574 247.661 155.419 247.814 155.401C247.968 155.381 248.101 155.503 248.111 155.672C248.152 156.33 248.234 156.983 248.356 157.614C248.386 157.773 248.297 157.936 248.155 157.986ZM270.448 149.373C270.339 149.41 270.218 149.373 270.149 149.268C269.8 148.741 269.428 148.234 269.044 147.761C268.944 147.637 268.957 147.442 269.073 147.324C269.19 147.207 269.366 147.213 269.466 147.336C269.862 147.823 270.244 148.345 270.604 148.888C270.693 149.022 270.663 149.216 270.537 149.321C270.509 149.345 270.479 149.362 270.448 149.373ZM247.905 153.986C247.876 153.996 247.845 154 247.814 153.999C247.66 153.996 247.544 153.854 247.555 153.684C247.584 153.227 247.703 151.964 247.897 151.561L247.893 151.559L248.266 150.771C248.339 150.618 248.507 150.552 248.643 150.626C248.778 150.699 248.829 150.884 248.756 151.037L248.372 151.85C248.324 151.997 248.175 152.673 248.111 153.698C248.103 153.834 248.017 153.947 247.905 153.986ZM268.069 146.451C267.979 146.482 267.879 146.463 267.806 146.391C267.37 145.958 266.911 145.551 266.44 145.181C266.317 145.085 266.293 144.893 266.386 144.752C266.479 144.612 266.654 144.576 266.776 144.672C267.263 145.055 267.738 145.475 268.188 145.923C268.3 146.034 268.305 146.228 268.2 146.358C268.163 146.403 268.117 146.434 268.069 146.451ZM265.17 144.173C265.1 144.197 265.023 144.192 264.956 144.151C264.448 143.842 263.915 143.56 263.371 143.313C263.231 143.249 263.17 143.069 263.234 142.911C263.298 142.753 263.463 142.677 263.603 142.74C264.166 142.996 264.717 143.287 265.242 143.606C265.374 143.687 265.417 143.874 265.338 144.024C265.299 144.098 265.238 144.149 265.17 144.173ZM249.445 149.376C249.379 149.399 249.307 149.396 249.242 149.361C249.106 149.287 249.056 149.103 249.128 148.949L249.991 147.127C250.064 146.973 250.232 146.908 250.368 146.982C250.504 147.055 250.555 147.239 250.482 147.393L249.619 149.215C249.581 149.296 249.517 149.352 249.445 149.376ZM261.865 142.668C261.814 142.686 261.759 142.688 261.705 142.67C261.151 142.493 260.57 142.341 259.979 142.219C259.83 142.188 259.737 142.028 259.771 141.86C259.806 141.692 259.956 141.581 260.106 141.612C260.714 141.737 261.312 141.894 261.883 142.077C262.029 142.124 262.107 142.294 262.058 142.458C262.027 142.562 261.953 142.638 261.865 142.668ZM251.17 145.732C251.105 145.755 251.032 145.752 250.967 145.716C250.832 145.643 250.781 145.459 250.854 145.305L251.716 143.483C251.789 143.329 251.958 143.264 252.094 143.338C252.229 143.411 252.28 143.595 252.207 143.749L251.345 145.571C251.307 145.651 251.242 145.707 251.17 145.732ZM258.324 141.936C258.289 141.948 258.252 141.953 258.214 141.949C257.636 141.889 257.034 141.853 256.424 141.843C256.271 141.841 256.154 141.701 256.164 141.53C256.173 141.36 256.305 141.222 256.459 141.226C257.083 141.236 257.699 141.273 258.292 141.334C258.444 141.35 258.55 141.501 258.529 141.67C258.513 141.798 258.43 141.9 258.324 141.936ZM254.693 141.873C254.671 141.88 254.648 141.885 254.624 141.887C254.089 141.92 253.537 141.972 252.981 142.041C252.898 142.108 252.787 142.124 252.693 142.072C252.557 141.999 252.506 141.814 252.579 141.661L252.673 141.462L252.826 141.442C253.433 141.364 254.036 141.306 254.619 141.27C254.773 141.261 254.899 141.391 254.9 141.561C254.901 141.705 254.813 141.831 254.693 141.873Z" fill="url(#paint13_linear_30_1854)"/>
<path d="M250.434 147.884C250.434 147.884 249.168 156.779 254.925 158.206C260.682 159.633 266.878 159.471 268.286 162.085C268.286 162.085 267.754 144.642 252.051 145.203L250.434 147.884Z" fill="url(#paint14_linear_30_1854)"/>
<path d="M233.512 146.831C233.512 146.831 229.605 154.673 231.036 157.116C232.398 159.44 247.731 168.981 249.224 169.907C249.292 169.948 249.377 169.923 249.422 169.85C249.802 169.247 249.908 168.494 249.706 167.821C248.732 164.571 245.746 154.897 243.982 152.338C241.851 149.247 233.512 146.831 233.512 146.831Z" fill="url(#paint15_linear_30_1854)"/>
<path d="M244.353 165.484C244.306 165.501 244.253 165.496 244.209 165.467C244.125 165.413 235.816 160.022 232.327 157.543C231.706 157.102 231.395 156.283 231.536 155.458C231.806 153.867 232.306 151.5 233.153 149.255C233.192 149.15 233.299 149.097 233.392 149.136C233.485 149.175 233.528 149.291 233.489 149.396C232.61 151.724 232.112 154.228 231.894 155.514C231.781 156.181 232.032 156.843 232.534 157.2C236.017 159.675 244.32 165.062 244.404 165.116C244.489 165.171 244.514 165.294 244.46 165.392C244.435 165.438 244.396 165.47 244.353 165.484Z" fill="white"/>
<path d="M244.28 129.723C244.28 129.723 249.588 122.924 252.2 123.492C254.684 124.032 268.408 136.13 269.741 137.309C269.801 137.362 269.81 137.458 269.764 137.531C269.384 138.134 268.778 138.513 268.128 138.552C264.99 138.74 255.619 139.211 252.787 138.348C249.367 137.305 244.28 129.723 244.28 129.723Z" fill="url(#paint16_linear_30_1854)"/>
<path d="M264.054 134.184C263.999 134.203 263.939 134.194 263.892 134.154C263.815 134.088 256.195 127.617 252.813 124.981C252.326 124.6 251.668 124.584 251.137 124.941C250.114 125.627 248.147 127.038 246.469 128.771C246.395 128.85 246.279 128.847 246.212 128.767C246.145 128.688 246.152 128.56 246.228 128.482C247.931 126.722 249.923 125.293 250.959 124.598C251.616 124.158 252.43 124.177 253.033 124.647C256.419 127.288 264.045 133.764 264.122 133.829C264.2 133.895 264.212 134.022 264.148 134.111C264.123 134.147 264.089 134.171 264.054 134.184Z" fill="white"/>
<path d="M211.956 130.638C214.232 133.964 217.186 137.291 221.013 140.159C232.892 149.064 243.113 153.257 246.051 154.362C246.583 154.562 247.181 154.411 247.616 153.981C251.048 150.595 253.622 146.565 255.345 141.895C255.669 141.016 255.525 140.032 254.981 139.346C252.624 136.371 245.455 127.906 234.04 119.461C230.227 116.639 226.337 114.852 222.687 113.745C216.789 119.268 213.571 126.459 211.956 130.638Z" fill="url(#paint17_linear_30_1854)"/>
<path d="M222.687 113.745C214.625 111.299 207.736 112.178 205.442 112.592C204.993 112.673 204.688 113.158 204.781 113.642C205.254 116.11 206.983 123.372 211.955 130.638C213.571 126.459 216.789 119.268 222.687 113.745Z" fill="url(#paint18_linear_30_1854)"/>
<path d="M231.051 122.383C234.134 124.679 234.702 129.611 232.319 133.397C229.935 137.184 225.504 138.392 222.42 136.096C219.337 133.799 218.769 128.868 221.152 125.081C223.536 121.295 227.967 120.087 231.051 122.383Z" fill="#91B3FA"/>
<path d="M230.138 123.468C232.595 125.298 233.047 129.227 231.148 132.244C229.249 135.261 225.718 136.224 223.261 134.394C220.804 132.565 220.352 128.635 222.251 125.618C224.15 122.601 227.681 121.638 230.138 123.468Z" fill="url(#paint19_linear_30_1854)"/>
<path d="M223.464 132.141C223.395 132.165 223.318 132.143 223.272 132.078C222.094 130.424 222.1 127.951 223.286 126.067C223.586 125.592 223.944 125.173 224.351 124.824C224.433 124.754 224.547 124.768 224.606 124.855C224.665 124.941 224.647 125.069 224.566 125.138C224.19 125.462 223.859 125.848 223.582 126.287C222.489 128.025 222.481 130.299 223.563 131.819C223.624 131.905 223.608 132.032 223.528 132.103C223.508 132.121 223.487 132.134 223.464 132.141Z" fill="#BDD0FB"/>
<path d="M240.807 133.066C242.844 134.583 243.219 137.841 241.644 140.342C240.07 142.844 237.142 143.642 235.105 142.125C233.068 140.608 232.693 137.35 234.267 134.848C235.842 132.347 238.77 131.549 240.807 133.066Z" fill="#91B3FA"/>
<path d="M240.204 133.783C241.827 134.991 242.126 137.587 240.871 139.58C239.617 141.574 237.284 142.21 235.661 141.001C234.037 139.792 233.739 137.196 234.993 135.203C236.248 133.21 238.581 132.574 240.204 133.783Z" fill="url(#paint20_linear_30_1854)"/>
<path d="M235.811 139.578C235.742 139.602 235.665 139.58 235.619 139.515C234.824 138.399 234.828 136.732 235.627 135.462C235.829 135.142 236.07 134.861 236.345 134.625C236.425 134.555 236.54 134.569 236.599 134.656C236.659 134.743 236.641 134.87 236.559 134.94C236.316 135.149 236.102 135.399 235.923 135.683C235.216 136.805 235.211 138.274 235.909 139.256C235.97 139.341 235.955 139.469 235.874 139.54C235.855 139.558 235.833 139.57 235.811 139.578Z" fill="#BDD0FB"/>
<path d="M111.868 191.375C111.945 191.142 112.216 191.002 112.474 191.064L113.642 191.343C113.901 191.404 114.048 191.642 113.973 191.876C113.897 192.11 113.626 192.25 113.367 192.189L112.196 191.91C112.08 191.882 111.986 191.818 111.925 191.735C111.851 191.633 111.826 191.503 111.868 191.375ZM116.317 192.418C116.39 192.184 116.659 192.041 116.919 192.099C117.388 192.205 117.858 192.31 118.328 192.414C118.588 192.471 118.739 192.708 118.668 192.942C118.596 193.177 118.328 193.32 118.068 193.263C117.596 193.159 117.125 193.054 116.655 192.948C116.535 192.921 116.439 192.857 116.377 192.772C116.304 192.672 116.278 192.545 116.317 192.418ZM121.023 193.447C121.092 193.212 121.358 193.065 121.619 193.119C122.09 193.217 122.561 193.315 123.033 193.41C123.294 193.463 123.451 193.697 123.384 193.933C123.317 194.169 123.051 194.317 122.79 194.264C122.317 194.168 121.843 194.07 121.371 193.971C121.248 193.946 121.148 193.88 121.085 193.793C121.014 193.695 120.987 193.571 121.023 193.447ZM125.75 194.399C125.813 194.162 126.077 194.011 126.338 194.061C126.811 194.151 127.285 194.24 127.758 194.327C128.02 194.376 128.182 194.606 128.121 194.843C128.059 195.08 127.797 195.233 127.535 195.184C127.059 195.097 126.583 195.007 126.108 194.917C125.982 194.893 125.879 194.826 125.813 194.736C125.744 194.641 125.717 194.52 125.75 194.399ZM130.498 195.266C130.556 195.029 130.816 194.873 131.079 194.918C131.554 194.998 132.029 195.078 132.505 195.157C132.768 195.2 132.936 195.428 132.879 195.665C132.823 195.903 132.564 196.06 132.301 196.017C131.823 195.939 131.346 195.858 130.869 195.777C130.738 195.755 130.631 195.687 130.564 195.595C130.496 195.502 130.469 195.385 130.498 195.266ZM135.266 196.041C135.318 195.803 135.575 195.642 135.839 195.681C136.316 195.753 136.793 195.823 137.27 195.891C137.534 195.929 137.708 196.153 137.658 196.391C137.608 196.63 137.353 196.792 137.088 196.755C136.609 196.686 136.129 196.616 135.65 196.544C135.515 196.524 135.404 196.455 135.334 196.36C135.269 196.27 135.241 196.157 135.266 196.041ZM140.055 196.715C140.101 196.476 140.353 196.309 140.618 196.343C141.097 196.404 141.576 196.463 142.055 196.52C142.32 196.552 142.501 196.771 142.457 197.011C142.414 197.251 142.163 197.419 141.897 197.387C141.416 197.329 140.935 197.27 140.453 197.209C140.313 197.191 140.197 197.121 140.126 197.023C140.062 196.937 140.034 196.828 140.055 196.715ZM144.864 197.279C144.903 197.039 145.15 196.866 145.417 196.893C145.897 196.943 146.378 196.99 146.858 197.036C147.125 197.061 147.312 197.276 147.276 197.516C147.239 197.756 146.994 197.93 146.727 197.905C146.244 197.86 145.761 197.812 145.278 197.763C145.132 197.748 145.011 197.676 144.937 197.576C144.876 197.492 144.847 197.388 144.864 197.279ZM149.692 197.721C149.723 197.48 149.965 197.302 150.232 197.322C150.714 197.358 151.196 197.393 151.677 197.425C151.946 197.443 152.14 197.652 152.111 197.893C152.083 198.134 151.844 198.314 151.576 198.297C151.092 198.265 150.606 198.23 150.121 198.193C149.97 198.182 149.843 198.109 149.767 198.005C149.708 197.925 149.679 197.826 149.692 197.721ZM154.536 198.03C154.558 197.788 154.793 197.603 155.061 197.615C155.545 197.637 156.027 197.657 156.51 197.675C156.778 197.684 156.981 197.888 156.962 198.129C156.943 198.37 156.71 198.558 156.441 198.548C155.956 198.531 155.469 198.511 154.982 198.489C154.825 198.481 154.691 198.408 154.611 198.299C154.556 198.223 154.527 198.129 154.536 198.03ZM159.392 198.19C159.404 197.949 159.632 197.756 159.901 197.759C160.387 197.766 160.872 197.77 161.357 197.772C161.626 197.772 161.837 197.969 161.827 198.21C161.819 198.452 161.593 198.647 161.324 198.646C160.836 198.645 160.347 198.64 159.857 198.634C159.693 198.632 159.552 198.557 159.469 198.444C159.416 198.372 159.387 198.284 159.392 198.19ZM164.264 198.187C164.266 197.945 164.485 197.745 164.754 197.738C165.241 197.728 165.726 197.714 166.21 197.697C166.48 197.688 166.7 197.876 166.702 198.118C166.704 198.359 166.487 198.562 166.218 198.572C165.729 198.588 165.24 198.602 164.749 198.613C164.578 198.617 164.428 198.541 164.342 198.423C164.292 198.355 164.264 198.274 164.264 198.187ZM169.138 198.001C169.128 197.76 169.337 197.551 169.606 197.535C170.092 197.505 170.577 197.471 171.06 197.435C171.329 197.415 171.559 197.594 171.573 197.834C171.587 198.075 171.381 198.286 171.112 198.307C170.624 198.343 170.135 198.377 169.644 198.407C169.465 198.418 169.305 198.342 169.215 198.218C169.17 198.156 169.142 198.082 169.138 198.001ZM174.004 197.614C173.98 197.374 174.178 197.157 174.446 197.128C174.93 197.076 175.413 197.021 175.894 196.963C176.162 196.931 176.402 197.098 176.43 197.338C176.458 197.578 176.263 197.798 175.995 197.83C175.509 197.889 175.021 197.944 174.532 197.996C174.345 198.016 174.174 197.939 174.079 197.809C174.038 197.753 174.011 197.687 174.004 197.614ZM178.848 197.003C178.81 196.765 178.995 196.539 179.261 196.497C179.741 196.422 180.22 196.344 180.699 196.262C180.966 196.217 181.215 196.372 181.258 196.609C181.301 196.846 181.12 197.075 180.854 197.121C180.37 197.204 179.885 197.283 179.4 197.359C179.205 197.389 179.021 197.312 178.921 197.175C178.884 197.125 178.859 197.067 178.848 197.003ZM183.656 196.152C183.602 195.917 183.772 195.681 184.036 195.625C184.51 195.526 184.984 195.422 185.456 195.313C185.719 195.253 185.979 195.393 186.039 195.628C186.098 195.862 185.933 196.1 185.67 196.16C185.192 196.27 184.712 196.375 184.231 196.477C184.028 196.519 183.829 196.443 183.723 196.299C183.692 196.256 183.668 196.206 183.656 196.152ZM188.403 195.032C188.331 194.801 188.482 194.556 188.742 194.485C189.099 194.386 189.456 194.285 189.811 194.18C189.856 194.101 189.929 194.032 190.023 193.986C190.263 193.871 190.56 193.946 190.678 194.161C190.896 194.541 191.121 194.916 191.354 195.287C191.484 195.494 191.399 195.763 191.164 195.886C190.928 196.009 190.632 195.937 190.501 195.734C190.352 195.497 190.207 195.258 190.064 195.018C189.711 195.121 189.358 195.222 189.003 195.32C188.792 195.378 188.575 195.304 188.462 195.15C188.437 195.115 188.416 195.075 188.403 195.032ZM192.44 197.713C192.662 197.57 192.965 197.613 193.117 197.809C193.388 198.158 193.667 198.501 193.954 198.839C194.115 199.029 194.071 199.303 193.855 199.453C193.639 199.603 193.333 199.571 193.173 199.382C192.877 199.035 192.591 198.682 192.312 198.323C192.309 198.32 192.307 198.317 192.304 198.313C192.162 198.119 192.221 197.852 192.44 197.713ZM195.406 201.096C195.604 200.928 195.913 200.932 196.095 201.105C196.419 201.413 196.751 201.715 197.091 202.011C197.282 202.177 197.281 202.453 197.091 202.629C196.901 202.805 196.592 202.813 196.402 202.648C196.056 202.348 195.711 202.034 195.375 201.715C195.356 201.696 195.34 201.677 195.325 201.657C195.199 201.485 195.228 201.247 195.406 201.096ZM188.384 191.798C188.2 191.394 188.024 190.986 187.855 190.574C187.763 190.35 187.894 190.096 188.147 190.007C188.399 189.917 188.679 190.025 188.771 190.251C188.936 190.653 189.109 191.052 189.289 191.447C189.389 191.668 189.269 191.926 189.019 192.023C188.798 192.109 188.551 192.04 188.427 191.87C188.41 191.848 188.396 191.824 188.384 191.798ZM198.905 204.039C199.073 203.847 199.38 203.808 199.59 203.954L199.845 204.129C200.138 204.327 200.433 204.52 200.733 204.708C200.949 204.843 200.998 205.116 200.84 205.315C200.681 205.515 200.376 205.566 200.159 205.43C199.85 205.236 199.544 205.037 199.242 204.832L198.979 204.652C198.937 204.623 198.902 204.588 198.875 204.55C198.764 204.4 198.77 204.193 198.905 204.039ZM186.804 187.658C186.672 187.236 186.548 186.812 186.431 186.386C186.367 186.153 186.527 185.912 186.789 185.848C187.05 185.784 187.315 185.921 187.378 186.153C187.492 186.57 187.614 186.985 187.743 187.398C187.815 187.628 187.663 187.874 187.404 187.945C187.193 188.004 186.976 187.929 186.863 187.776C186.837 187.74 186.817 187.701 186.804 187.658ZM193.055 193.606C192.962 193.382 193.092 193.127 193.345 193.037C193.799 192.875 194.251 192.709 194.699 192.537C194.949 192.441 195.234 192.542 195.332 192.765C195.431 192.987 195.309 193.244 195.059 193.34C194.602 193.515 194.143 193.684 193.681 193.849C193.462 193.926 193.224 193.856 193.103 193.691C193.084 193.665 193.068 193.636 193.055 193.606ZM185.736 183.378C185.655 182.945 185.58 182.51 185.513 182.074C185.476 181.836 185.662 181.611 185.929 181.571C186.196 181.531 186.442 181.692 186.478 181.929C186.544 182.356 186.617 182.782 186.698 183.206C186.742 183.443 186.563 183.674 186.298 183.721C186.1 183.756 185.909 183.679 185.807 183.54C185.772 183.492 185.748 183.438 185.736 183.378ZM202.884 206.444C203.017 206.231 203.315 206.15 203.549 206.263C203.963 206.463 204.388 206.657 204.814 206.84C205.053 206.943 205.149 207.204 205.026 207.422C204.904 207.641 204.611 207.734 204.371 207.631C203.932 207.442 203.493 207.242 203.066 207.035C202.996 207.001 202.939 206.953 202.898 206.897C202.803 206.767 202.791 206.593 202.884 206.444ZM185.161 179.011C185.127 178.571 185.101 178.131 185.082 177.691C185.072 177.449 185.282 177.241 185.551 177.224C185.82 177.208 186.047 177.389 186.056 177.63C186.075 178.062 186.101 178.494 186.133 178.925C186.152 179.165 185.949 179.38 185.68 179.403C185.497 179.419 185.33 179.342 185.237 179.215C185.194 179.156 185.167 179.087 185.161 179.011ZM207.252 208.248C207.348 208.02 207.63 207.899 207.881 207.979C208.33 208.121 208.782 208.253 209.237 208.377C209.493 208.446 209.631 208.69 209.546 208.921C209.461 209.153 209.185 209.284 208.93 209.215C208.461 209.087 207.991 208.95 207.533 208.805C207.432 208.773 207.352 208.714 207.297 208.64C207.216 208.529 207.194 208.385 207.252 208.248ZM197.567 191.833C197.452 191.619 197.555 191.355 197.798 191.245C198.234 191.047 198.667 190.844 199.096 190.635C199.335 190.518 199.627 190.591 199.752 190.806C199.875 191.018 199.78 191.284 199.541 191.4C199.103 191.614 198.661 191.821 198.217 192.023C197.993 192.124 197.728 192.06 197.598 191.882C197.587 191.867 197.576 191.851 197.567 191.833ZM185.066 174.602C185.081 174.16 185.102 173.718 185.131 173.277C185.147 173.036 185.377 172.846 185.646 172.852C185.914 172.859 186.12 173.061 186.104 173.302C186.076 173.735 186.055 174.168 186.041 174.602C186.033 174.843 185.808 175.039 185.539 175.039C185.372 175.039 185.227 174.964 185.143 174.849C185.092 174.779 185.063 174.694 185.066 174.602ZM211.893 209.444C211.953 209.207 212.214 209.052 212.476 209.098C212.945 209.181 213.417 209.255 213.89 209.32C214.155 209.357 214.33 209.58 214.281 209.818C214.233 210.057 213.978 210.221 213.714 210.185C213.227 210.117 212.742 210.041 212.261 209.957C212.131 209.934 212.025 209.866 211.958 209.775C211.89 209.682 211.863 209.564 211.893 209.444ZM185.45 170.192C185.514 169.752 185.585 169.313 185.664 168.874C185.708 168.635 185.958 168.467 186.224 168.498C186.49 168.53 186.67 168.75 186.627 168.989C186.549 169.418 186.479 169.848 186.417 170.278C186.383 170.518 186.138 170.694 185.871 170.67C185.723 170.657 185.599 170.585 185.524 170.482C185.464 170.401 185.435 170.299 185.45 170.192ZM216.697 210.048C216.721 209.807 216.958 209.623 217.226 209.638C217.706 209.664 218.186 209.682 218.668 209.692C218.937 209.697 219.144 209.897 219.129 210.139C219.115 210.38 218.886 210.571 218.617 210.566C218.123 210.556 217.63 210.538 217.138 210.511C216.983 210.503 216.851 210.429 216.772 210.322C216.715 210.244 216.687 210.149 216.697 210.048ZM201.878 189.681C201.737 189.479 201.81 189.208 202.039 189.076C202.318 188.915 202.596 188.752 202.871 188.585C203.002 188.507 203.131 188.427 203.26 188.348C203.485 188.209 203.788 188.256 203.936 188.454C203.936 188.454 203.938 188.457 203.939 188.458C204.083 188.655 204.02 188.925 203.797 189.063C203.664 189.145 203.531 189.226 203.398 189.306C203.117 189.476 202.833 189.644 202.548 189.808C202.321 189.938 202.027 189.885 201.884 189.689C201.882 189.687 201.88 189.684 201.878 189.681ZM186.367 165.822C186.489 165.389 186.622 164.958 186.764 164.53C186.842 164.297 187.113 164.159 187.371 164.221C187.63 164.284 187.775 164.524 187.698 164.757C187.559 165.173 187.43 165.592 187.311 166.013C187.245 166.249 186.979 166.397 186.718 166.345C186.594 166.32 186.494 166.253 186.429 166.165C186.359 166.069 186.332 165.946 186.367 165.822ZM221.567 210.093C221.559 209.852 221.77 209.645 222.039 209.63C222.52 209.603 223.002 209.568 223.484 209.525C223.752 209.501 223.984 209.677 224.003 209.917C224.021 210.158 223.819 210.372 223.55 210.395C223.057 210.439 222.563 210.475 222.07 210.502C221.893 210.512 221.734 210.436 221.644 210.313C221.598 210.25 221.57 210.175 221.567 210.093ZM205.994 186.507C206.371 186.23 206.743 185.946 207.109 185.655C207.314 185.493 207.622 185.506 207.796 185.684C207.973 185.865 207.948 186.14 207.743 186.302C207.367 186.601 206.986 186.892 206.598 187.177C206.387 187.333 206.08 187.308 205.914 187.123C205.903 187.113 205.894 187.101 205.886 187.089C205.752 186.906 205.795 186.653 205.994 186.507ZM187.945 161.577C188.142 161.159 188.353 160.746 188.57 160.348C188.689 160.128 188.982 160.032 189.223 160.133C189.464 160.233 189.562 160.493 189.443 160.713C189.234 161.096 189.031 161.495 188.84 161.897C188.734 162.122 188.448 162.233 188.2 162.144C188.107 162.111 188.034 162.054 187.983 161.985C187.898 161.869 187.878 161.717 187.945 161.577ZM226.427 209.614C226.387 209.376 226.57 209.148 226.836 209.105C227.313 209.028 227.789 208.944 228.264 208.852C228.528 208.801 228.782 208.951 228.832 209.187C228.881 209.423 228.706 209.656 228.441 209.707C227.955 209.801 227.469 209.887 226.981 209.966C226.785 209.998 226.599 209.921 226.498 209.783C226.462 209.734 226.437 209.676 226.427 209.614ZM190.329 157.61C190.612 157.233 190.911 156.863 191.216 156.509C191.383 156.315 191.69 156.275 191.901 156.419C192.113 156.563 192.148 156.837 191.981 157.031C191.689 157.369 191.403 157.724 191.132 158.084C190.979 158.287 190.675 158.345 190.454 158.215C190.399 158.182 190.354 158.141 190.32 158.095C190.217 157.954 190.214 157.763 190.329 157.61ZM209.565 183.524C209.901 183.206 210.23 182.882 210.551 182.552C210.731 182.368 211.04 182.345 211.24 182.501C211.442 182.657 211.457 182.933 211.276 183.117C210.946 183.456 210.609 183.788 210.264 184.115C210.076 184.293 209.768 184.305 209.575 184.142C209.548 184.119 209.524 184.094 209.505 184.067C209.385 183.903 209.404 183.677 209.565 183.524ZM231.209 208.641C231.14 208.409 231.294 208.166 231.554 208.096C232.02 207.972 232.484 207.841 232.946 207.703C233.204 207.626 233.475 207.749 233.554 207.978C233.632 208.207 233.486 208.454 233.229 208.532C232.757 208.673 232.283 208.807 231.806 208.934C231.596 208.99 231.382 208.915 231.27 208.763C231.243 208.726 231.223 208.685 231.209 208.641ZM193.618 154.166C193.993 153.862 194.386 153.567 194.788 153.29C195.004 153.14 195.309 153.173 195.469 153.363C195.629 153.554 195.584 153.827 195.368 153.977C194.987 154.239 194.614 154.518 194.26 154.806C194.057 154.971 193.749 154.96 193.572 154.784C193.556 154.767 193.541 154.751 193.528 154.733C193.4 154.557 193.434 154.315 193.618 154.166ZM212.679 180.158C212.965 179.804 213.243 179.445 213.512 179.081C213.663 178.876 213.966 178.816 214.189 178.945C214.412 179.075 214.471 179.345 214.32 179.548C214.043 179.923 213.757 180.292 213.463 180.657C213.303 180.855 212.998 180.905 212.781 180.767C212.732 180.736 212.692 180.698 212.661 180.655C212.555 180.51 212.555 180.312 212.679 180.158ZM235.857 207.2C235.759 206.977 235.883 206.721 236.134 206.626C236.583 206.456 237.029 206.28 237.472 206.098C237.719 205.996 238.004 206.091 238.112 206.31C238.218 206.529 238.104 206.789 237.857 206.891C237.404 207.077 236.948 207.257 236.488 207.431C236.269 207.513 236.024 207.444 235.901 207.276C235.884 207.253 235.869 207.227 235.857 207.2ZM215.25 176.455C215.477 176.068 215.696 175.674 215.899 175.286C216.015 175.065 216.306 174.965 216.549 175.062C216.792 175.16 216.895 175.417 216.779 175.638C216.569 176.039 216.344 176.445 216.109 176.844C215.982 177.061 215.687 177.149 215.45 177.041C215.374 177.007 215.313 176.957 215.27 176.898C215.177 176.771 215.163 176.602 215.25 176.455ZM197.555 152.175C197.437 151.961 197.539 151.697 197.781 151.585C198.231 151.377 198.695 151.184 199.158 151.01C199.409 150.916 199.694 151.021 199.789 151.243C199.886 151.465 199.762 151.722 199.51 151.816C199.072 151.98 198.633 152.163 198.206 152.36C197.981 152.464 197.715 152.4 197.584 152.221C197.573 152.206 197.563 152.191 197.555 152.175ZM240.311 205.308C240.186 205.098 240.277 204.831 240.516 204.713C240.942 204.5 241.364 204.28 241.782 204.055C242.016 203.929 242.318 203.996 242.447 204.199C242.581 204.405 242.499 204.674 242.266 204.801C241.838 205.031 241.406 205.256 240.97 205.474C240.744 205.586 240.468 205.526 240.333 205.341C240.325 205.331 240.318 205.32 240.311 205.308ZM217.171 172.468C217.326 172.06 217.472 171.643 217.604 171.227C217.678 170.994 217.948 170.852 218.207 170.912C218.466 170.972 218.616 171.21 218.54 171.444C218.404 171.874 218.253 172.306 218.093 172.728C218.005 172.958 217.727 173.087 217.473 173.015C217.365 172.985 217.279 172.923 217.222 172.845C217.144 172.739 217.12 172.601 217.171 172.468ZM202.137 150.594C202.092 150.357 202.271 150.127 202.536 150.08C203.035 149.991 203.54 149.922 204.034 149.877C204.303 149.852 204.536 150.026 204.556 150.267C204.575 150.507 204.373 150.722 204.105 150.746C203.641 150.789 203.167 150.854 202.699 150.937C202.5 150.973 202.309 150.896 202.207 150.756C202.173 150.709 202.148 150.654 202.137 150.594ZM218.327 168.277C218.401 167.852 218.462 167.421 218.509 166.995C218.535 166.754 218.774 166.573 219.042 166.589C219.31 166.606 219.506 166.815 219.479 167.055C219.43 167.497 219.367 167.945 219.291 168.385C219.249 168.625 219 168.795 218.734 168.765C218.59 168.748 218.472 168.678 218.399 168.578C218.337 168.493 218.308 168.387 218.327 168.277ZM244.637 202.371C245.034 202.116 245.426 201.854 245.812 201.587C246.028 201.437 246.334 201.469 246.494 201.659C246.657 201.844 246.609 202.123 246.393 202.273C245.997 202.547 245.596 202.815 245.189 203.077C244.967 203.219 244.663 203.177 244.511 202.982C244.508 202.979 244.505 202.975 244.503 202.971C244.361 202.777 244.419 202.511 244.637 202.371ZM206.988 150.301C207.035 150.062 207.287 149.896 207.553 149.931C208.053 149.995 208.549 150.086 209.029 150.201C209.287 150.262 209.434 150.501 209.358 150.735C209.282 150.968 209.01 151.108 208.752 151.046C208.308 150.941 207.848 150.856 207.385 150.796C207.245 150.778 207.13 150.708 207.059 150.611C206.995 150.524 206.966 150.414 206.988 150.301ZM218.594 164.002C218.569 163.578 218.528 163.15 218.471 162.728C218.439 162.49 218.629 162.267 218.897 162.231C219.164 162.195 219.407 162.36 219.439 162.598C219.498 163.038 219.541 163.486 219.567 163.93C219.581 164.171 219.375 164.382 219.106 164.402C218.925 164.415 218.762 164.338 218.67 164.213C218.626 164.153 218.598 164.081 218.594 164.002ZM211.574 151.58C211.718 151.373 212.019 151.304 212.247 151.428C212.671 151.658 213.085 151.914 213.478 152.19C213.688 152.336 213.719 152.611 213.55 152.803C213.38 152.995 213.073 153.032 212.864 152.885C212.5 152.63 212.116 152.393 211.724 152.18C211.662 152.146 211.613 152.102 211.575 152.051C211.476 151.915 211.469 151.732 211.574 151.58ZM217.811 159.82C217.679 159.412 217.529 159.008 217.366 158.617C217.272 158.394 217.4 158.139 217.653 158.048C217.905 157.957 218.187 158.065 218.279 158.288C218.451 158.698 218.609 159.124 218.748 159.552C218.822 159.782 218.673 160.028 218.415 160.102C218.203 160.163 217.983 160.089 217.87 159.934C217.845 159.899 217.825 159.861 217.811 159.82ZM215.23 154.338C215.446 154.187 215.751 154.218 215.913 154.407C216.207 154.752 216.491 155.122 216.758 155.502C216.898 155.704 216.826 155.975 216.597 156.108C216.367 156.24 216.063 156.18 215.927 155.982C215.676 155.623 215.409 155.276 215.132 154.952C215.125 154.944 215.119 154.935 215.112 154.927C214.975 154.739 215.024 154.482 215.23 154.338ZM248.448 199.624C248.813 199.331 249.174 199.035 249.53 198.734C249.729 198.565 250.037 198.569 250.219 198.743C250.401 198.917 250.386 199.193 250.187 199.361C249.824 199.668 249.456 199.971 249.083 200.269C248.879 200.432 248.571 200.419 248.396 200.241C248.381 200.226 248.367 200.21 248.355 200.193C248.226 200.016 248.261 199.772 248.448 199.624ZM251.944 196.55C252.277 196.228 252.606 195.902 252.929 195.572C253.109 195.388 253.418 195.366 253.618 195.522C253.816 195.679 253.833 195.954 253.653 196.138C253.323 196.475 252.988 196.807 252.649 197.135C252.463 197.315 252.154 197.329 251.96 197.168C251.931 197.144 251.907 197.118 251.886 197.09C251.767 196.927 251.785 196.703 251.944 196.55ZM255.111 193.199C255.412 192.851 255.706 192.5 255.997 192.146C256.158 191.948 256.464 191.901 256.679 192.04C256.894 192.18 256.938 192.452 256.776 192.649C256.481 193.01 256.18 193.368 255.875 193.721C255.708 193.915 255.401 193.955 255.19 193.811C255.147 193.781 255.111 193.746 255.083 193.708C254.973 193.558 254.978 193.353 255.111 193.199ZM257.945 189.613C258.211 189.244 258.473 188.872 258.73 188.497C258.873 188.289 259.174 188.219 259.402 188.341C259.63 188.462 259.699 188.731 259.556 188.939C259.295 189.32 259.029 189.698 258.758 190.073C258.61 190.278 258.307 190.342 258.083 190.215C258.024 190.182 257.977 190.139 257.941 190.091C257.84 189.952 257.835 189.765 257.945 189.613ZM260.446 185.835C260.68 185.449 260.909 185.06 261.133 184.669C261.258 184.452 261.553 184.361 261.791 184.466C262.03 184.572 262.123 184.833 261.998 185.051C261.77 185.448 261.537 185.842 261.3 186.234C261.17 186.449 260.873 186.534 260.638 186.423C260.564 186.389 260.506 186.34 260.464 186.282C260.37 186.154 260.357 185.983 260.446 185.835ZM262.624 181.901C262.826 181.502 263.023 181.1 263.216 180.696C263.323 180.472 263.61 180.362 263.857 180.451C264.104 180.54 264.218 180.795 264.11 181.02C263.915 181.429 263.715 181.837 263.51 182.242C263.397 182.465 263.108 182.569 262.864 182.474C262.776 182.441 262.706 182.386 262.657 182.32C262.57 182.201 262.552 182.044 262.624 181.901ZM264.489 177.845C264.66 177.434 264.827 177.021 264.99 176.608C265.08 176.378 265.358 176.252 265.612 176.326C265.865 176.399 265.998 176.646 265.908 176.876C265.744 177.295 265.575 177.713 265.401 178.129C265.306 178.358 265.024 178.479 264.772 178.4C264.671 178.369 264.59 178.309 264.535 178.235C264.455 178.125 264.432 177.981 264.489 177.845ZM266.053 173.692C266.195 173.273 266.333 172.853 266.466 172.432C266.54 172.198 266.81 172.056 267.068 172.115C267.327 172.175 267.477 172.412 267.403 172.646C267.268 173.073 267.129 173.499 266.986 173.923C266.907 174.156 266.634 174.293 266.377 174.23C266.262 174.201 266.17 174.138 266.11 174.055C266.035 173.953 266.01 173.821 266.053 173.692Z" fill="url(#paint21_linear_30_1854)"/>
<path d="M148.535 76.5278C157.571 76.5278 164.895 69.2033 164.895 60.168C164.895 51.1327 157.571 43.8081 148.535 43.8081C139.5 43.8081 132.175 51.1327 132.175 60.168C132.175 69.2033 139.5 76.5278 148.535 76.5278Z" fill="url(#paint22_linear_30_1854)"/>
<path d="M148.535 75.9839C157.27 75.9839 164.351 68.9028 164.351 60.168C164.351 51.4331 157.27 44.3521 148.535 44.3521C139.8 44.3521 132.719 51.4331 132.719 60.168C132.719 68.9028 139.8 75.9839 148.535 75.9839Z" fill="url(#paint23_linear_30_1854)"/>
<path opacity="0.7" d="M135.493 53.8147C135.461 53.8147 135.427 53.8072 135.396 53.7914C135.289 53.7374 135.246 53.6071 135.3 53.5004C137.838 48.4741 142.909 45.3515 148.535 45.3515C149.433 45.3515 150.333 45.4324 151.208 45.5921C151.326 45.6135 151.404 45.7263 151.382 45.8441C151.361 45.962 151.247 46.0405 151.13 46.0183C150.28 45.8634 149.407 45.7849 148.535 45.7849C143.074 45.7849 138.15 48.8162 135.687 53.6955C135.649 53.7711 135.573 53.8147 135.493 53.8147Z" fill="white"/>
<path opacity="0.78" d="M158.344 69.9781C163.572 64.7506 163.572 56.275 158.344 51.0474C153.117 45.8198 144.641 45.8198 139.414 51.0474C134.186 56.275 134.186 64.7505 139.414 69.9781C144.641 75.2057 153.117 75.2057 158.344 69.9781Z" fill="white"/>
<path d="M147.566 70.464V69.0077C146.048 68.9469 144.546 68.5886 143.48 68.1216C143.099 67.9549 142.905 67.5275 143.014 67.1265L143.384 65.7699C143.52 65.2722 144.061 65.0149 144.537 65.2143C145.595 65.6579 146.901 66.0087 148.31 66.0087C149.772 66.0087 150.863 65.513 150.863 64.4967C150.863 63.5798 150.02 63.0346 147.988 62.4894C145.088 61.6962 143.006 60.4322 143.006 57.8794C143.006 55.5744 144.691 53.8147 147.616 53.3439V51.8874C147.616 51.4187 147.996 51.0388 148.464 51.0388H149.32C149.789 51.0388 150.169 51.4187 150.169 51.8874V53.1951C151.573 53.2513 152.596 53.4915 153.408 53.7767C153.823 53.9228 154.051 54.3707 153.935 54.7961L153.595 56.0507C153.464 56.5344 152.947 56.7995 152.478 56.6222C151.731 56.3396 150.674 56.0454 149.301 56.0454C147.566 56.0454 147.071 56.7641 147.071 57.4085C147.071 58.2016 148.111 58.7468 150.367 59.441C153.589 60.4075 154.927 61.7459 154.927 64.15C154.927 66.3559 153.291 68.3386 150.119 68.8344V70.4642C150.119 70.9329 149.739 71.3127 149.27 71.3127H148.415C147.946 71.3126 147.566 70.9327 147.566 70.464Z" fill="url(#paint24_linear_30_1854)"/>
<path d="M183.989 67.4163C194.077 67.4163 202.254 59.2388 202.254 49.1512C202.254 39.0636 194.077 30.886 183.989 30.886C173.901 30.886 165.724 39.0636 165.724 49.1512C165.724 59.2388 173.901 67.4163 183.989 67.4163Z" fill="url(#paint25_linear_30_1854)"/>
<path d="M183.989 66.809C193.741 66.809 201.647 58.9033 201.647 49.1512C201.647 39.399 193.741 31.4934 183.989 31.4934C174.237 31.4934 166.331 39.399 166.331 49.1512C166.331 58.9033 174.237 66.809 183.989 66.809Z" fill="url(#paint26_linear_30_1854)"/>
<path opacity="0.7" d="M169.428 42.0329C169.396 42.0329 169.362 42.0255 169.331 42.0096C169.224 41.9557 169.181 41.8253 169.235 41.7186C172.063 36.1152 177.717 32.6344 183.989 32.6344C184.989 32.6344 185.992 32.7245 186.968 32.9025C187.086 32.9239 187.164 33.0367 187.143 33.1544C187.121 33.2722 187.01 33.352 186.891 33.3287C185.94 33.1556 184.964 33.0678 183.989 33.0678C177.881 33.0678 172.376 36.4574 169.622 41.9138C169.584 41.9893 169.508 42.0329 169.428 42.0329Z" fill="white"/>
<path opacity="0.78" d="M194.94 60.1041C200.777 54.2677 200.777 44.805 194.94 38.9687C189.104 33.1323 179.641 33.1323 173.805 38.9687C167.969 44.805 167.969 54.2677 173.805 60.1041C179.641 65.9405 189.104 65.9405 194.94 60.1041Z" fill="white"/>
<path d="M182.907 60.6463V59.0204C181.212 58.9526 179.536 58.5525 178.345 58.0312C177.92 57.8451 177.703 57.368 177.825 56.9201L178.238 55.4056C178.39 54.85 178.994 54.5626 179.525 54.7853C180.706 55.2805 182.165 55.6722 183.737 55.6722C185.37 55.6722 186.587 55.1187 186.587 53.9842C186.587 52.9604 185.647 52.3517 183.378 51.743C180.14 50.8575 177.816 49.4462 177.816 46.5961C177.816 44.0226 179.697 42.058 182.962 41.5323V39.9062C182.962 39.3829 183.387 38.9588 183.91 38.9588H184.865C185.388 38.9588 185.813 39.383 185.813 39.9062V41.3662C187.381 41.429 188.523 41.6971 189.429 42.0155C189.893 42.1786 190.147 42.6787 190.018 43.1536L189.638 44.5543C189.492 45.0944 188.914 45.3903 188.391 45.1923C187.557 44.8768 186.377 44.5484 184.844 44.5484C182.907 44.5484 182.354 45.3508 182.354 46.0703C182.354 46.9558 183.516 47.5645 186.034 48.3394C189.631 49.4185 191.125 50.9127 191.125 53.5969C191.125 56.0596 189.299 58.2733 185.757 58.8268V60.6465C185.757 61.1697 185.333 61.5938 184.81 61.5938H183.855C183.331 61.5937 182.907 61.1696 182.907 60.6463Z" fill="url(#paint27_linear_30_1854)"/>
<path d="M174.425 99.0986C182.154 99.0986 188.419 92.8335 188.419 85.1051C188.419 77.3766 182.154 71.1115 174.425 71.1115C166.697 71.1115 160.432 77.3766 160.432 85.1051C160.432 92.8335 166.697 99.0986 174.425 99.0986Z" fill="url(#paint28_linear_30_1854)"/>
<path d="M174.425 98.6333C181.897 98.6333 187.953 92.5765 187.953 85.1051C187.953 77.6336 181.897 71.5768 174.425 71.5768C166.954 71.5768 160.897 77.6336 160.897 85.1051C160.897 92.5765 166.954 98.6333 174.425 98.6333Z" fill="url(#paint29_linear_30_1854)"/>
<path opacity="0.7" d="M163.27 79.702C163.237 79.702 163.204 79.6946 163.172 79.6787C163.066 79.6248 163.023 79.4944 163.077 79.3878C165.252 75.0777 169.6 72.4002 174.425 72.4002C175.195 72.4002 175.966 72.4696 176.717 72.6065C176.835 72.6278 176.913 72.7407 176.891 72.8585C176.87 72.9762 176.759 73.0558 176.639 73.0327C175.913 72.9006 175.169 72.8336 174.425 72.8336C169.765 72.8336 165.565 75.4199 163.463 79.5829C163.425 79.6584 163.349 79.702 163.27 79.702Z" fill="white"/>
<path opacity="0.78" d="M182.815 93.4962C187.286 89.0247 187.286 81.7751 182.815 77.3036C178.344 72.8321 171.094 72.8321 166.622 77.3036C162.151 81.7751 162.151 89.0247 166.622 93.4962C171.094 97.9677 178.344 97.9677 182.815 93.4962Z" fill="white"/>
<path d="M173.596 93.9119V92.6662C172.298 92.6142 171.013 92.3077 170.101 91.9084C169.775 91.7657 169.609 91.4002 169.703 91.0571L170.019 89.8968C170.135 89.4711 170.598 89.2509 171.005 89.4215C171.91 89.8008 173.027 90.101 174.232 90.101C175.483 90.101 176.416 89.677 176.416 88.8077C176.416 88.0234 175.695 87.557 173.957 87.0907C171.476 86.4123 169.696 85.331 169.696 83.1475C169.696 81.1758 171.137 79.6706 173.639 79.268V78.0221C173.639 77.6213 173.964 77.2963 174.365 77.2963H175.096C175.497 77.2963 175.822 77.6212 175.822 78.0221V79.1406C177.024 79.1887 177.899 79.3942 178.593 79.6382C178.948 79.7632 179.143 80.1463 179.044 80.5101L178.753 81.5832C178.641 81.997 178.199 82.2237 177.798 82.072C177.158 81.8303 176.255 81.5787 175.08 81.5787C173.596 81.5787 173.172 82.1934 173.172 82.7447C173.172 83.4231 174.063 83.8894 175.992 84.4831C178.748 85.3098 179.893 86.4546 179.893 88.511C179.893 90.3978 178.493 92.0938 175.78 92.5178V93.9119C175.78 94.3128 175.455 94.6377 175.054 94.6377H174.322C173.921 94.6377 173.596 94.3127 173.596 93.9119Z" fill="url(#paint30_linear_30_1854)"/>
<path d="M109.024 176.008C109.024 176.008 107.957 174.429 106.792 172.967C106.337 172.395 105.539 172.275 105.041 172.698C103.349 174.134 99.7436 177.222 98.5572 178.445C98.3788 178.629 98.4564 178.957 98.7074 179.088C98.9176 179.197 99.1526 179.224 99.3636 179.165L107.841 176.769L109.024 176.008Z" fill="url(#paint31_linear_30_1854)"/>
<path d="M109.938 176.668L108.207 175.203C108.207 175.203 106.596 175.728 106.378 177.032L108.555 178.434L109.938 176.668Z" fill="url(#paint32_linear_30_1854)"/>
<path d="M148.307 137.559C151.009 131.497 153.559 122.438 150.588 113.384L148.867 111.663C148.867 111.663 148.866 125.844 145.338 132.886C146.324 134.446 147.31 136.006 148.307 137.559Z" fill="url(#paint33_linear_30_1854)"/>
<path d="M148.454 108.953L147.804 109.927C147.626 110.195 147.579 110.529 147.68 110.835C147.944 111.634 148.54 113.205 149.38 114.045C150.537 115.202 151.694 112.424 151.925 111.499C152.157 110.573 150.537 108.259 150.074 107.796C149.611 107.333 147.759 107.564 148.454 108.953Z" fill="url(#paint34_linear_30_1854)"/>
<path d="M139.587 204.359C139.587 204.359 139.255 206.242 139.091 208.105C139.028 208.834 139.589 209.466 140.32 209.496C142.802 209.6 148.11 209.801 150.015 209.716C150.302 209.703 150.489 209.41 150.383 209.143C150.294 208.92 150.123 208.74 149.904 208.64L141.136 204.609L139.587 204.359Z" fill="url(#paint35_linear_30_1854)"/>
<path d="M139.315 203.253L139.582 205.505C139.582 205.505 141.118 206.22 142.167 205.415L141.531 202.905L139.315 203.253Z" fill="url(#paint36_linear_30_1854)"/>
<path d="M139.515 160.916C139.4 161.504 138.896 190.262 141.97 203.15C142.02 203.36 141.913 203.577 141.713 203.659C141.242 203.851 140.318 204.13 139.21 204.168C138.867 204.179 138.559 203.956 138.462 203.627C137.584 200.637 131.547 183.335 130.997 169.024C130.384 153.032 133.184 160.915 133.184 160.915L139.515 160.916Z" fill="url(#paint37_linear_30_1854)"/>
<path d="M126.233 161.431C123.655 167.932 122.812 168.948 121.661 176.37C120.282 185.27 113.548 179.124 109.952 176.235C109.498 175.87 108.147 177.178 108.016 179.017C107.844 181.414 122.371 192.797 126.301 184.75C128.811 179.61 129.506 173.825 131.173 170.625C131.381 170.225 131.721 169.911 132.134 169.734L137.263 167.537L138.709 162.505L126.233 161.431Z" fill="url(#paint38_linear_30_1854)"/>
<path d="M123.426 138.341C120.725 132.279 118.175 123.22 121.146 114.166L122.867 112.445C122.867 112.445 122.868 126.626 126.396 133.668C125.41 135.228 124.424 136.788 123.426 138.341Z" fill="url(#paint39_linear_30_1854)"/>
<path d="M139.52 136.172H131.036C130.184 136.172 129.366 135.845 128.748 135.257C127.957 134.505 126.94 133.23 126.22 131.222C126.111 130.918 125.784 130.751 125.474 130.842C124.382 131.166 121.993 132.092 120.74 134.249C120.623 134.451 120.625 134.701 120.752 134.897L126.043 143.086L125.522 163.288C125.522 163.288 138.819 165.374 140.644 163.288L142.469 144.776C142.469 144.776 148.988 140.865 150.813 134.607L145.337 131.478C145.337 131.478 144.7 131.505 144.156 132.971C143.439 134.902 141.579 136.172 139.52 136.172Z" fill="url(#paint40_linear_30_1854)"/>
<path d="M132.256 130L132.06 136.547C132.048 136.967 132.31 137.345 132.708 137.477C133.523 137.747 134.999 138.081 136.649 137.725C137.142 137.619 137.456 137.132 137.37 136.636L136.473 131.478L132.256 130Z" fill="url(#paint41_linear_30_1854)"/>
<path d="M136.743 124.005C136.802 124.079 138.782 129.465 139.653 131.838C139.873 132.439 139.545 133.101 138.934 133.292L137.02 133.641C135.751 133.873 134.49 133.196 133.982 132.011L131.677 129.325C130.423 127.865 130.854 125.607 132.568 124.733C134.256 123.872 136.107 123.208 136.743 124.005Z" fill="url(#paint42_linear_30_1854)"/>
<path d="M132.933 129.927L133.481 129.653C133.481 129.653 131.289 126.092 133.755 125.818C136.221 125.544 138.413 124.996 138.413 123.626C138.413 122.256 138.413 119.79 135.399 120.886C132.385 121.982 132.659 123.9 131.015 124.174C129.372 124.448 128.002 124.722 128.55 126.366C129.098 128.009 130.193 129.105 129.646 129.653C129.098 130.201 131.563 132.941 132.933 129.927Z" fill="url(#paint43_linear_30_1854)"/>
<path d="M133.518 130.994C133.518 130.994 133.063 128.586 132.046 128.526C131.03 128.466 130.096 129.354 131.179 130.657C132.527 132.278 133.518 130.994 133.518 130.994Z" fill="url(#paint44_linear_30_1854)"/>
<path d="M123.28 109.735L123.93 110.709C124.108 110.977 124.155 111.311 124.054 111.617C123.79 112.416 123.194 113.987 122.354 114.827C121.197 115.984 120.04 113.207 119.808 112.281C119.577 111.355 121.197 109.041 121.66 108.578C122.123 108.115 123.974 108.346 123.28 109.735Z" fill="url(#paint45_linear_30_1854)"/>
<path d="M166.337 126.374C166.337 126.374 167.053 121.948 161.871 122.41C156.689 122.872 155.705 127.54 154.966 133.543C154.361 138.456 149.438 142.201 146.509 145.799C142.821 150.33 141.947 156.183 144.867 161.492C147.256 165.834 152.698 166.253 157.017 165.096C170.234 161.556 173.621 161.094 172.527 152.475C171.433 143.856 166.337 126.374 166.337 126.374Z" fill="url(#paint46_linear_30_1854)"/>
<path d="M182.732 131.521C182.617 131.3 182.29 131.335 182.224 131.575C181.977 132.462 181.38 134.011 180.128 134.561C180.065 134.588 180.006 134.616 179.948 134.645C179.891 134.474 179.89 134.277 180.026 134.069C180.416 133.474 179.713 132.661 179.713 132.661C179.713 132.661 179.666 133.377 179.122 133.827C178.654 134.216 178.429 135.079 178.749 135.788C179.427 138.42 180.441 141.901 176.489 144.445C172.536 146.988 166.969 139.645 166.969 139.645L169.732 148.404C169.732 148.404 173.996 151.551 178.957 147.126C183.917 142.7 180.63 136.261 180.63 136.261C180.63 136.261 184.413 134.735 182.732 131.521Z" fill="url(#paint47_linear_30_1854)"/>
<path d="M166.6 138.683C165.417 138.328 161.974 137.674 158.7 140.696C158.144 141.208 157.917 141.987 158.115 142.716C158.995 145.955 161.316 155.522 159.281 159.661C159.281 159.661 162.867 163.614 166.779 160.428C166.779 160.428 168.534 152.778 170.833 149.42C172.42 147.101 168.302 140.713 167.26 139.17C167.102 138.937 166.87 138.764 166.6 138.683Z" fill="url(#paint48_linear_30_1854)"/>
<path d="M163.335 132.249C163.335 132.249 161.586 137.196 161.455 139.378C161.455 139.378 163.387 140.257 165.208 138.773C165.208 138.773 165.4 133.833 165.676 132.948L163.335 132.249Z" fill="url(#paint49_linear_30_1854)"/>
<path d="M165.764 125.505C165.764 125.505 170.338 131.906 167.604 133.765C164.87 135.624 161.614 131.075 161.614 131.075C161.614 131.075 160.552 127.572 161.662 126.383C162.772 125.195 165.764 125.505 165.764 125.505Z" fill="url(#paint50_linear_30_1854)"/>
<path d="M163.647 123.975C163.647 123.975 165.748 124.473 166.042 125.424C166.337 126.375 163.063 127.256 162.145 127.299L161.406 131.136C161.406 131.136 159.221 127.527 160.086 125.442C160.952 123.358 163.647 123.975 163.647 123.975Z" fill="url(#paint51_linear_30_1854)"/>
<path d="M162.5 130.604C162.5 130.604 160.72 128.543 160.012 129.887C159.304 131.231 161.614 132.24 162.414 131.58L162.5 130.604Z" fill="url(#paint52_linear_30_1854)"/>
<path d="M171.346 176.49C171.332 176.837 171.942 179.592 172.274 181.062C172.407 181.653 172.314 182.271 172.013 182.797L160.521 202.14C160.382 202.374 160.281 202.627 160.219 202.892C160.008 203.8 159.572 206.025 159.8 208.048L160.394 209.283L157.823 208.699L157.264 201.794L157.991 201.35C158.62 200.967 159.11 200.394 159.39 199.713C160.429 197.188 163.01 190.763 163.675 187.632C164.431 184.073 168.383 181.182 168.383 181.182L167.689 179.541L171.346 176.49Z" fill="url(#paint53_linear_30_1854)"/>
<path d="M154.966 206.323C154.966 206.323 156.354 204.122 156.517 203.265C156.681 202.408 157.136 200.895 157.992 201.35C157.992 201.35 158.395 205.513 158.256 207.14C158.117 208.766 160.095 208.714 160.095 208.714C160.095 208.714 160.64 208.79 161.039 209.189C161.314 209.465 161.117 209.943 160.728 209.968C160.081 210.01 159.053 210.021 157.974 209.812C157.597 209.739 157.317 209.418 157.294 209.035L157.009 204.244L155.258 206.456L154.966 206.323Z" fill="url(#paint54_linear_30_1854)"/>
<path d="M164.48 179.571C164.48 179.571 164.075 196.873 164.02 199.33C163.965 201.787 164.408 207.233 166.871 208.861L165.799 209.654C165.799 209.654 164.46 208.516 163.151 206.324C161.681 203.863 161.236 203.413 161.236 203.413L161.724 202.414C161.938 201.977 162.001 201.482 161.902 201.005C161.371 198.429 159.595 189.859 159.11 188.014C158.538 185.835 158.498 182.926 160.487 180.491C162.477 178.056 164.48 179.571 164.48 179.571Z" fill="url(#paint55_linear_30_1854)"/>
<path d="M162.205 210.434C162.129 210.435 162.064 210.38 162.053 210.304C161.971 209.727 161.63 207.415 161.351 206.816C161.031 206.13 159.986 203.244 161.351 202.999C161.351 202.999 164.746 207.958 165.397 208.627C166.049 209.296 166.871 208.861 166.871 208.861C166.871 208.861 167.506 209.048 167.985 209.66C168.213 209.951 168 210.379 167.631 210.382L165.344 210.404C164.68 210.41 164.083 210.007 163.836 209.39C163.434 208.385 162.743 206.911 161.937 206.257L162.355 210.266C162.365 210.355 162.295 210.433 162.205 210.434Z" fill="url(#paint56_linear_30_1854)"/>
<path d="M167.32 158.563C167.32 158.563 166.805 160.205 167.596 162.91L172.506 180.056C172.583 180.326 172.438 180.608 172.174 180.702C170.705 181.229 165.877 182.719 159.287 182.265C158.955 182.242 158.677 182.007 158.604 181.682C158.17 179.728 156.688 173.058 156.383 171.688C155.221 166.466 153.923 160.835 159.633 157.43C162.264 158.557 164.719 159.222 167.32 158.563Z" fill="url(#paint57_linear_30_1854)"/>
<path d="M158.231 141.342C158.231 141.342 152.644 145.985 151.258 152.329C149.872 158.673 159.421 159.347 159.421 159.347C159.421 159.347 160.718 157.9 162.257 158.416C163.796 158.932 162.376 155.889 160.575 155.897C158.774 155.905 159.609 157.329 157.061 156.175C154.58 155.051 153.046 151.575 159.377 146.305C159.744 145.999 160.037 145.61 160.214 145.166C161.444 142.07 160.468 140.04 158.231 141.342Z" fill="url(#paint58_linear_30_1854)"/>
<path d="M151.957 163.944C151.001 163.944 149.997 163.762 149.238 163.433C148.099 162.94 146.834 161.48 146.03 160.278C142.096 154.401 146.2 148.436 149.629 144.461C150.651 143.275 151.765 142.073 152.94 140.887C152.97 140.857 153.019 140.857 153.049 140.887C153.079 140.917 153.08 140.966 153.05 140.996C151.877 142.179 150.765 143.379 149.745 144.562C146.349 148.499 142.283 154.403 146.157 160.192C146.95 161.376 148.191 162.812 149.299 163.292C150.321 163.735 151.801 163.904 152.983 163.712C153.024 163.705 153.064 163.733 153.071 163.775C153.078 163.817 153.049 163.857 153.007 163.864C152.675 163.918 152.319 163.944 151.957 163.944Z" fill="white"/>
<path d="M165.442 124.803C165.413 124.803 165.385 124.786 165.372 124.757C165.348 124.703 164.756 123.423 162.972 123.423C162.93 123.423 162.895 123.389 162.895 123.346C162.895 123.304 162.93 123.269 162.972 123.269C164.859 123.269 165.506 124.68 165.512 124.695C165.53 124.733 165.512 124.779 165.473 124.796C165.463 124.801 165.453 124.803 165.442 124.803Z" fill="white"/>
</g>
<defs>
<linearGradient id="paint0_linear_30_1854" x1="299.788" y1="262.421" x2="140.982" y2="65.1945" gradientUnits="userSpaceOnUse">
<stop stop-color="#DAE3FE"/>
<stop offset="1" stop-color="#E9EFFD"/>
</linearGradient>
<linearGradient id="paint1_linear_30_1854" x1="133.034" y1="59.1637" x2="161.777" y2="161.296" gradientUnits="userSpaceOnUse">
<stop stop-color="#09005D"/>
<stop offset="1" stop-color="#1A0F91"/>
</linearGradient>
<linearGradient id="paint2_linear_30_1854" x1="306.758" y1="-44.3272" x2="277.289" y2="-2.72291" gradientUnits="userSpaceOnUse">
<stop stop-color="#4042E2"/>
<stop offset="1" stop-color="#4F52FF"/>
</linearGradient>
<linearGradient id="paint3_linear_30_1854" x1="267.202" y1="-84.8958" x2="252.034" y2="-42.8582" gradientUnits="userSpaceOnUse">
<stop stop-color="#4042E2"/>
<stop offset="1" stop-color="#4F52FF"/>
</linearGradient>
<linearGradient id="paint4_linear_30_1854" x1="134.959" y1="111.624" x2="257.627" y2="111.624" gradientUnits="userSpaceOnUse">
<stop stop-color="#DAE3FE"/>
<stop offset="1" stop-color="#E9EFFD"/>
</linearGradient>
<linearGradient id="paint5_linear_30_1854" x1="192.153" y1="153.81" x2="201.254" y2="61.0673" gradientUnits="userSpaceOnUse">
<stop stop-color="#4042E2"/>
<stop offset="1" stop-color="#4F52FF"/>
</linearGradient>
<linearGradient id="paint6_linear_30_1854" x1="158.435" y1="111.624" x2="234.15" y2="111.624" gradientUnits="userSpaceOnUse">
<stop stop-color="#DAE3FE"/>
<stop offset="1" stop-color="#E9EFFD"/>
</linearGradient>
<linearGradient id="paint7_linear_30_1854" x1="211.276" y1="96.6411" x2="263.281" y2="44.6357" gradientUnits="userSpaceOnUse">
<stop stop-color="#4042E2"/>
<stop offset="1" stop-color="#4F52FF"/>
</linearGradient>
<linearGradient id="paint8_linear_30_1854" x1="180.895" y1="111.624" x2="211.69" y2="111.624" gradientUnits="userSpaceOnUse">
<stop stop-color="#DAE3FE"/>
<stop offset="1" stop-color="#E9EFFD"/>
</linearGradient>
<linearGradient id="paint9_linear_30_1854" x1="176.427" y1="106.918" x2="243.18" y2="66.5365" gradientUnits="userSpaceOnUse">
<stop stop-color="#09005D"/>
<stop offset="1" stop-color="#1A0F91"/>
</linearGradient>
<linearGradient id="paint10_linear_30_1854" x1="198.93" y1="106.902" x2="246.181" y2="67.7083" gradientUnits="userSpaceOnUse">
<stop stop-color="#FF928E"/>
<stop offset="1" stop-color="#FE7062"/>
</linearGradient>
<linearGradient id="paint11_linear_30_1854" x1="261.754" y1="51.0336" x2="326.176" y2="-2.40219" gradientUnits="userSpaceOnUse">
<stop stop-color="#FF928E"/>
<stop offset="1" stop-color="#FE7062"/>
</linearGradient>
<linearGradient id="paint12_linear_30_1854" x1="256.535" y1="45.8143" x2="309.97" y2="-18.6082" gradientUnits="userSpaceOnUse">
<stop stop-color="#FF928E"/>
<stop offset="1" stop-color="#FE7062"/>
</linearGradient>
<linearGradient id="paint13_linear_30_1854" x1="278.8" y1="160.866" x2="247.332" y2="153.982" gradientUnits="userSpaceOnUse">
<stop stop-color="#FF928E"/>
<stop offset="1" stop-color="#FE7062"/>
</linearGradient>
<linearGradient id="paint14_linear_30_1854" x1="269.811" y1="163.123" x2="251.863" y2="147.993" gradientUnits="userSpaceOnUse">
<stop stop-color="#FF928E"/>
<stop offset="1" stop-color="#FE7062"/>
</linearGradient>
<linearGradient id="paint15_linear_30_1854" x1="248.069" y1="173.35" x2="237.752" y2="155.133" gradientUnits="userSpaceOnUse">
<stop stop-color="#FF928E"/>
<stop offset="1" stop-color="#FE7062"/>
</linearGradient>
<linearGradient id="paint16_linear_30_1854" x1="274.482" y1="132.457" x2="247.908" y2="130.721" gradientUnits="userSpaceOnUse">
<stop stop-color="#FF928E"/>
<stop offset="1" stop-color="#FE7062"/>
</linearGradient>
<linearGradient id="paint17_linear_30_1854" x1="226.692" y1="114.168" x2="237.96" y2="148.405" gradientUnits="userSpaceOnUse">
<stop stop-color="#09005D"/>
<stop offset="1" stop-color="#1A0F91"/>
</linearGradient>
<linearGradient id="paint18_linear_30_1854" x1="211.765" y1="109.447" x2="224.322" y2="142.152" gradientUnits="userSpaceOnUse">
<stop stop-color="#FF928E"/>
<stop offset="1" stop-color="#FE7062"/>
</linearGradient>
<linearGradient id="paint19_linear_30_1854" x1="223.059" y1="134.261" x2="230.34" y2="123.601" gradientUnits="userSpaceOnUse">
<stop stop-color="#09005D"/>
<stop offset="1" stop-color="#1A0F91"/>
</linearGradient>
<linearGradient id="paint20_linear_30_1854" x1="235.527" y1="140.913" x2="240.338" y2="133.871" gradientUnits="userSpaceOnUse">
<stop stop-color="#09005D"/>
<stop offset="1" stop-color="#1A0F91"/>
</linearGradient>
<linearGradient id="paint21_linear_30_1854" x1="-328.116" y1="132.506" x2="-376.814" y2="128.206" gradientUnits="userSpaceOnUse">
<stop stop-color="#FF928E"/>
<stop offset="1" stop-color="#FE7062"/>
</linearGradient>
<linearGradient id="paint22_linear_30_1854" x1="126.148" y1="86.1528" x2="148.092" y2="60.6824" gradientUnits="userSpaceOnUse">
<stop stop-color="#FF928E"/>
<stop offset="1" stop-color="#FE7062"/>
</linearGradient>
<linearGradient id="paint23_linear_30_1854" x1="160.492" y1="42.1053" x2="95.6035" y2="140.133" gradientUnits="userSpaceOnUse">
<stop stop-color="#FF928E"/>
<stop offset="1" stop-color="#FE7062"/>
</linearGradient>
<linearGradient id="paint24_linear_30_1854" x1="150.068" y1="49.9975" x2="148.118" y2="69.4995" gradientUnits="userSpaceOnUse">
<stop stop-color="#FF928E"/>
<stop offset="1" stop-color="#FE7062"/>
</linearGradient>
<linearGradient id="paint25_linear_30_1854" x1="158.995" y1="78.1623" x2="183.494" y2="49.7256" gradientUnits="userSpaceOnUse">
<stop stop-color="#FF928E"/>
<stop offset="1" stop-color="#FE7062"/>
</linearGradient>
<linearGradient id="paint26_linear_30_1854" x1="197.338" y1="28.9849" x2="124.893" y2="138.429" gradientUnits="userSpaceOnUse">
<stop stop-color="#FF928E"/>
<stop offset="1" stop-color="#FE7062"/>
</linearGradient>
<linearGradient id="paint27_linear_30_1854" x1="185.572" y1="33.4101" x2="184.055" y2="56.3792" gradientUnits="userSpaceOnUse">
<stop stop-color="#FF928E"/>
<stop offset="1" stop-color="#FE7062"/>
</linearGradient>
<linearGradient id="paint28_linear_30_1854" x1="155.276" y1="107.331" x2="174.046" y2="85.5451" gradientUnits="userSpaceOnUse">
<stop stop-color="#FF928E"/>
<stop offset="1" stop-color="#FE7062"/>
</linearGradient>
<linearGradient id="paint29_linear_30_1854" x1="184.652" y1="69.655" x2="129.15" y2="153.504" gradientUnits="userSpaceOnUse">
<stop stop-color="#FF928E"/>
<stop offset="1" stop-color="#FE7062"/>
</linearGradient>
<linearGradient id="paint30_linear_30_1854" x1="175.171" y1="76.7843" x2="174.304" y2="97.5865" gradientUnits="userSpaceOnUse">
<stop stop-color="#FF928E"/>
<stop offset="1" stop-color="#FE7062"/>
</linearGradient>
<linearGradient id="paint31_linear_30_1854" x1="104.167" y1="184.097" x2="106.375" y2="139.234" gradientUnits="userSpaceOnUse">
<stop stop-color="#09005D"/>
<stop offset="1" stop-color="#1A0F91"/>
</linearGradient>
<linearGradient id="paint32_linear_30_1854" x1="109.189" y1="175.864" x2="107.103" y2="177.81" gradientUnits="userSpaceOnUse">
<stop stop-color="#FEBBBA"/>
<stop offset="1" stop-color="#FF928E"/>
</linearGradient>
<linearGradient id="paint33_linear_30_1854" x1="150.379" y1="110.625" x2="146.985" y2="144.665" gradientUnits="userSpaceOnUse">
<stop stop-color="#FEBBBA"/>
<stop offset="1" stop-color="#FF928E"/>
</linearGradient>
<linearGradient id="paint34_linear_30_1854" x1="149.821" y1="110.569" x2="146.427" y2="144.609" gradientUnits="userSpaceOnUse">
<stop stop-color="#FEBBBA"/>
<stop offset="1" stop-color="#FF928E"/>
</linearGradient>
<linearGradient id="paint35_linear_30_1854" x1="149.738" y1="201.757" x2="117.626" y2="236.686" gradientUnits="userSpaceOnUse">
<stop stop-color="#09005D"/>
<stop offset="1" stop-color="#1A0F91"/>
</linearGradient>
<linearGradient id="paint36_linear_30_1854" x1="139.315" y1="204.351" x2="142.167" y2="204.351" gradientUnits="userSpaceOnUse">
<stop stop-color="#FEBBBA"/>
<stop offset="1" stop-color="#FF928E"/>
</linearGradient>
<linearGradient id="paint37_linear_30_1854" x1="142.495" y1="183.819" x2="104.586" y2="168.772" gradientUnits="userSpaceOnUse">
<stop stop-color="#09005D"/>
<stop offset="1" stop-color="#1A0F91"/>
</linearGradient>
<linearGradient id="paint38_linear_30_1854" x1="143.703" y1="180.777" x2="105.794" y2="165.73" gradientUnits="userSpaceOnUse">
<stop stop-color="#09005D"/>
<stop offset="1" stop-color="#1A0F91"/>
</linearGradient>
<linearGradient id="paint39_linear_30_1854" x1="121.354" y1="111.407" x2="124.748" y2="145.447" gradientUnits="userSpaceOnUse">
<stop stop-color="#FEBBBA"/>
<stop offset="1" stop-color="#FF928E"/>
</linearGradient>
<linearGradient id="paint40_linear_30_1854" x1="195.596" y1="103.609" x2="177.394" y2="116.177" gradientUnits="userSpaceOnUse">
<stop stop-color="#FF928E"/>
<stop offset="1" stop-color="#FE7062"/>
</linearGradient>
<linearGradient id="paint41_linear_30_1854" x1="137.384" y1="133.94" x2="132.06" y2="133.94" gradientUnits="userSpaceOnUse">
<stop stop-color="#FEBBBA"/>
<stop offset="1" stop-color="#FF928E"/>
</linearGradient>
<linearGradient id="paint42_linear_30_1854" x1="135.221" y1="125.303" x2="135.643" y2="141.564" gradientUnits="userSpaceOnUse">
<stop stop-color="#FEBBBA"/>
<stop offset="1" stop-color="#FF928E"/>
</linearGradient>
<linearGradient id="paint43_linear_30_1854" x1="135.552" y1="121.853" x2="123.395" y2="137.936" gradientUnits="userSpaceOnUse">
<stop stop-color="#09005D"/>
<stop offset="1" stop-color="#1A0F91"/>
</linearGradient>
<linearGradient id="paint44_linear_30_1854" x1="131.103" y1="140.318" x2="132.154" y2="129.779" gradientUnits="userSpaceOnUse">
<stop stop-color="#FEBBBA"/>
<stop offset="1" stop-color="#FF928E"/>
</linearGradient>
<linearGradient id="paint45_linear_30_1854" x1="121.913" y1="111.351" x2="125.307" y2="145.392" gradientUnits="userSpaceOnUse">
<stop stop-color="#FEBBBA"/>
<stop offset="1" stop-color="#FF928E"/>
</linearGradient>
<linearGradient id="paint46_linear_30_1854" x1="169.405" y1="122.492" x2="163.146" y2="140.038" gradientUnits="userSpaceOnUse">
<stop stop-color="#09005D"/>
<stop offset="1" stop-color="#1A0F91"/>
</linearGradient>
<linearGradient id="paint47_linear_30_1854" x1="184.42" y1="125.354" x2="169.559" y2="149.171" gradientUnits="userSpaceOnUse">
<stop stop-color="#FEBBBA"/>
<stop offset="1" stop-color="#FF928E"/>
</linearGradient>
<linearGradient id="paint48_linear_30_1854" x1="232.188" y1="89.5298" x2="217.886" y2="102.098" gradientUnits="userSpaceOnUse">
<stop stop-color="#FF928E"/>
<stop offset="1" stop-color="#FE7062"/>
</linearGradient>
<linearGradient id="paint49_linear_30_1854" x1="166.117" y1="141.83" x2="163.331" y2="135.642" gradientUnits="userSpaceOnUse">
<stop stop-color="#FEBBBA"/>
<stop offset="1" stop-color="#FF928E"/>
</linearGradient>
<linearGradient id="paint50_linear_30_1854" x1="166.26" y1="126.792" x2="160.606" y2="139.034" gradientUnits="userSpaceOnUse">
<stop stop-color="#FEBBBA"/>
<stop offset="1" stop-color="#FF928E"/>
</linearGradient>
<linearGradient id="paint51_linear_30_1854" x1="164.749" y1="120.831" x2="158.49" y2="138.377" gradientUnits="userSpaceOnUse">
<stop stop-color="#09005D"/>
<stop offset="1" stop-color="#1A0F91"/>
</linearGradient>
<linearGradient id="paint52_linear_30_1854" x1="163.6" y1="125.563" x2="157.945" y2="137.805" gradientUnits="userSpaceOnUse">
<stop stop-color="#FEBBBA"/>
<stop offset="1" stop-color="#FF928E"/>
</linearGradient>
<linearGradient id="paint53_linear_30_1854" x1="150.482" y1="218.887" x2="171.24" y2="181.418" gradientUnits="userSpaceOnUse">
<stop stop-color="#FEBBBA"/>
<stop offset="1" stop-color="#FF928E"/>
</linearGradient>
<linearGradient id="paint54_linear_30_1854" x1="154.959" y1="205.667" x2="161.13" y2="205.608" gradientUnits="userSpaceOnUse">
<stop stop-color="#09005D"/>
<stop offset="1" stop-color="#1A0F91"/>
</linearGradient>
<linearGradient id="paint55_linear_30_1854" x1="174.146" y1="191.09" x2="142.667" y2="201.486" gradientUnits="userSpaceOnUse">
<stop stop-color="#FEBBBA"/>
<stop offset="1" stop-color="#FF928E"/>
</linearGradient>
<linearGradient id="paint56_linear_30_1854" x1="160.691" y1="206.727" x2="168.048" y2="206.657" gradientUnits="userSpaceOnUse">
<stop stop-color="#09005D"/>
<stop offset="1" stop-color="#1A0F91"/>
</linearGradient>
<linearGradient id="paint57_linear_30_1854" x1="163.643" y1="173.53" x2="153.778" y2="220.714" gradientUnits="userSpaceOnUse">
<stop stop-color="#E1473D"/>
<stop offset="1" stop-color="#E9605A"/>
</linearGradient>
<linearGradient id="paint58_linear_30_1854" x1="152.476" y1="161.081" x2="182.23" y2="116.965" gradientUnits="userSpaceOnUse">
<stop stop-color="#FEBBBA"/>
<stop offset="1" stop-color="#FF928E"/>
</linearGradient>
<clipPath id="clip0_30_1854">
<rect width="240" height="240" fill="white" transform="translate(68)"/>
</clipPath>
</defs>
</svg>
